<?xml version="1.0" encoding="UTF-8"?>
<svg version="1.1" xmlns="http://www.w3.org/2000/svg" width="80" height="80">
<path d="M0 0 C1.68222656 -0.05607422 1.68222656 -0.05607422 3.3984375 -0.11328125 C7.27124158 0.39777885 8.9022133 1.56421904 11.625 4.3125 C11.625 4.9725 11.625 5.6325 11.625 6.3125 C12.346875 6.18875 13.06875 6.065 13.8125 5.9375 C17.21957813 6.39177708 18.4784471 7.63120669 20.57983398 10.2890625 C22.71276065 14.41840055 22.21380116 18.96393179 22.0625 23.5 C22.05669922 24.49708984 22.05089844 25.49417969 22.04492188 26.52148438 C21.9210697 33.86839545 21.9210697 33.86839545 19.625 37.3125 C18.965 37.3125 18.305 37.3125 17.625 37.3125 C17.5425 38.199375 17.46 39.08625 17.375 40 C16.52297373 43.76311603 15.07699047 45.40076132 12.625 48.3125 C11.84666466 50.49464568 11.84666466 50.49464568 11.625 52.3125 C12.82125 52.395 14.0175 52.4775 15.25 52.5625 C22.06573815 53.45046589 26.17965527 57.42668228 30.3671875 62.58984375 C33.88066551 67.40178103 33.625 70.07867824 33.625 76.3125 C12.505 76.3125 -8.615 76.3125 -30.375 76.3125 C-30.375 68.71229557 -29.66431307 64.81469137 -24.50390625 59.3203125 C-20.19989877 55.39870266 -16.55142336 52.45367437 -10.5625 52.1875 C-9.840625 52.22875 -9.11875 52.27 -8.375 52.3125 C-9.45446538 49.25401475 -10.63668962 46.93535907 -12.5 44.25 C-14.375 41.3125 -14.375 41.3125 -14.375 37.3125 C-15.365 36.9825 -16.355 36.6525 -17.375 36.3125 C-19.28860426 32.48529148 -18.64683213 27.83548009 -18.6875 23.625 C-18.71650391 22.64337891 -18.74550781 21.66175781 -18.77539062 20.65039062 C-18.83097515 14.27527308 -18.14976776 10.49936154 -14.375 5.3125 C-9.71847269 0.9966942 -6.25800066 0.13604349 0 0 Z " fill="#F8BE96" transform="translate(38.375,1.6875)"/>
<path d="M0 0 C1.37868281 1.62935241 2.71274093 3.29749607 4 5 C7.06429776 6.53214888 9.6165642 6.22938548 13 6 C16.5386994 4.34860695 17.81070153 3.28394771 20 0 C26.70661393 0.50299604 31.64208934 3.64208934 36.3125 8.3125 C38.9933304 12.58197063 41 16.91277934 41 22 C20.54 22 0.08 22 -21 22 C-19.00948749 13.04269369 -17.55756866 8.09696491 -10 3 C-6.66822066 1.28630334 -3.81453369 0 0 0 Z " fill="#C1E7FE" transform="translate(30,55)"/>
<path d="M0 0 C3.88757512 1.47459746 5.22221474 3.27963479 7 7 C7.31622893 9.72925509 7.47670631 12.15490419 7.4375 14.875 C7.42831543 15.94463989 7.42831543 15.94463989 7.41894531 17.03588867 C7.25336002 22.57726431 6.53714528 25.77507647 3 30 C0.75 31.9375 0.75 31.9375 -1 33 C-0.34 33 0.32 33 1 33 C0.63599596 40.40141557 0.63599596 40.40141557 -2.125 43 C-6.46899864 44.51095605 -10.08327468 44.80704224 -14.375 43 C-16.90243766 39.88930749 -16.74053312 36.9568699 -17 33 C-16.01 33 -15.02 33 -14 33 C-14.7425 32.67 -15.485 32.34 -16.25 32 C-20.05201118 29.23490096 -21.66544959 26.4889423 -23 22 C-24.29093509 11.81595653 -24.29093509 11.81595653 -21.3671875 7.703125 C-18.38911144 5.56048282 -16.25990817 5.33891918 -12.625 5 C-7.25991513 4.33615373 -4.09146039 3.50696605 0 0 Z " fill="#FEECA2" transform="translate(48,18)"/>
<path d="M0 0 C1.68222656 -0.05607422 1.68222656 -0.05607422 3.3984375 -0.11328125 C7.27124158 0.39777885 8.9022133 1.56421904 11.625 4.3125 C11.625 4.9725 11.625 5.6325 11.625 6.3125 C12.346875 6.18875 13.06875 6.065 13.8125 5.9375 C17.21957813 6.39177708 18.4784471 7.63120669 20.57983398 10.2890625 C22.71276065 14.41840055 22.21380116 18.96393179 22.0625 23.5 C22.05669922 24.49708984 22.05089844 25.49417969 22.04492188 26.52148438 C21.9210697 33.86839545 21.9210697 33.86839545 19.625 37.3125 C18.965 37.3125 18.305 37.3125 17.625 37.3125 C17.5425 38.199375 17.46 39.08625 17.375 40 C16.52297373 43.76311603 15.07699047 45.40076132 12.625 48.3125 C11.84666466 50.49464568 11.84666466 50.49464568 11.625 52.3125 C12.82125 52.395 14.0175 52.4775 15.25 52.5625 C22.06573815 53.45046589 26.17965527 57.42668228 30.3671875 62.58984375 C33.88066551 67.40178103 33.625 70.07867824 33.625 76.3125 C12.505 76.3125 -8.615 76.3125 -30.375 76.3125 C-30.375 68.71229557 -29.66431307 64.81469137 -24.50390625 59.3203125 C-20.19989877 55.39870266 -16.55142336 52.45367437 -10.5625 52.1875 C-9.840625 52.22875 -9.11875 52.27 -8.375 52.3125 C-9.45446538 49.25401475 -10.63668962 46.93535907 -12.5 44.25 C-14.375 41.3125 -14.375 41.3125 -14.375 37.3125 C-15.365 36.9825 -16.355 36.6525 -17.375 36.3125 C-19.28860426 32.48529148 -18.64683213 27.83548009 -18.6875 23.625 C-18.71650391 22.64337891 -18.74550781 21.66175781 -18.77539062 20.65039062 C-18.83097515 14.27527308 -18.14976776 10.49936154 -14.375 5.3125 C-9.71847269 0.9966942 -6.25800066 0.13604349 0 0 Z M-14.8125 8.375 C-18.07948314 14.5169283 -18.28716254 20.71633471 -16.375 27.375 C-16.045 28.344375 -15.715 29.31375 -15.375 30.3125 C-15.045 30.3125 -14.715 30.3125 -14.375 30.3125 C-14.045 28.9925 -13.715 27.6725 -13.375 26.3125 C-13.44460937 27.47265625 -13.44460937 27.47265625 -13.515625 28.65625 C-13.75146385 35.46188544 -13.52342982 40.72052873 -9.375 46.3125 C-7.30955106 48.28674869 -7.30955106 48.28674869 -5.375 49.3125 C-6.035 49.3125 -6.695 49.3125 -7.375 49.3125 C-7.375 51.2925 -7.375 53.2725 -7.375 55.3125 C-7.705 54.6525 -8.035 53.9925 -8.375 53.3125 C-15.08161393 53.81549604 -20.01708934 56.95458934 -24.6875 61.625 C-27.3683304 65.89447063 -29.375 70.22527934 -29.375 75.3125 C-8.915 75.3125 11.545 75.3125 32.625 75.3125 C30.63448749 66.35519369 29.18256866 61.40946491 21.625 56.3125 C18.29322066 54.59880334 15.43953369 53.3125 11.625 53.3125 C11.295 53.6425 10.965 53.9725 10.625 54.3125 C10.625 52.6625 10.625 51.0125 10.625 49.3125 C9.635 49.3125 8.645 49.3125 7.625 49.3125 C8.553125 48.77625 9.48125 48.24 10.4375 47.6875 C14.0467421 44.99826079 15.14105358 43.53003194 16.625 39.3125 C16.96315883 36.73202609 17.18465369 34.18115003 17.31640625 31.58203125 C17.625 29.3125 17.625 29.3125 19.625 26.3125 C21.42751656 21.4457053 21.4211589 16.14366548 19.375 11.4375 C17.53888584 9.20793281 16.33890472 8.24540475 13.625 7.3125 C12.635 7.3125 11.645 7.3125 10.625 7.3125 C10.3775 6.69375 10.13 6.075 9.875 5.4375 C8.36761161 2.87493974 7.34436541 2.4196702 4.625 1.3125 C-3.24694447 0.03996762 -9.83142276 2.11672346 -14.8125 8.375 Z " fill="#8D8992" transform="translate(38.375,1.6875)"/>
<path d="M0 0 C1.06927734 0.12568359 1.06927734 0.12568359 2.16015625 0.25390625 C7.69019573 0.84189161 12.54028471 1.09194306 18 0 C17.63599596 7.40141557 17.63599596 7.40141557 14.875 10 C10.53100136 11.51095605 6.91672532 11.80704224 2.625 10 C0.09756234 6.88930749 0.25946688 3.9568699 0 0 Z " fill="#E0CB75" transform="translate(31,51)"/>
<path d="M0 0 C1.34069042 2.68138083 0.95246807 4.63649261 0.8125 7.625 C0.77884162 13.23248533 1.35208678 17.58934129 5 22 C8.06762838 24.03824673 8.06762838 24.03824673 11 25 C10.01 25.33 9.02 25.66 8 26 C7.34 25.67 6.68 25.34 6 25 C6.33 27.31 6.66 29.62 7 32 C6.34 31.67 5.68 31.34 5 31 C4.87625 29.9275 4.7525 28.855 4.625 27.75 C3.92401192 23.54407153 2.64155638 22.21939684 0 19 C-0.75 15.6875 -0.75 15.6875 -1 13 C-1.99 12.67 -2.98 12.34 -4 12 C-5.4783226 9.04335481 -5.06032783 6.25770263 -5 3 C-4.01 3 -3.02 3 -2 3 C-1.34 2.01 -0.68 1.02 0 0 Z " fill="#BC9A52" transform="translate(25,26)"/>
<path d="M0 0 C0.33 0 0.66 0 1 0 C1 2.64 1 5.28 1 8 C0.01 8.33 -0.98 8.66 -2 9 C-2.0825 9.886875 -2.165 10.77375 -2.25 11.6875 C-3 15 -3 15 -5 17.4375 C-7.47628951 20.61024594 -7.54611331 23.06631538 -8 27 C-8.66 27.33 -9.32 27.66 -10 28 C-9.67 25.69 -9.34 23.38 -9 21 C-10.65 21.33 -12.3 21.66 -14 22 C-13.236875 21.401875 -12.47375 20.80375 -11.6875 20.1875 C-7.1637854 16.50540672 -5.41350328 14.03400441 -3.375 8.4375 C-1.02531646 2.05063291 -1.02531646 2.05063291 0 0 Z " fill="#C2A552" transform="translate(58,30)"/>
<path d="M0 0 C0.33 0 0.66 0 1 0 C1 2.64 1 5.28 1 8 C0.01 8.33 -0.98 8.66 -2 9 C-2.73323796 11.01508358 -2.73323796 11.01508358 -3 13 C-3.31563182 7.73946963 -2.66590937 4.55426184 0 0 Z " fill="#CBAD5C" transform="translate(58,30)"/>
<path d="M0 0 C0.99 0 1.98 0 3 0 C3.33 2.64 3.66 5.28 4 8 C2.68 7.67 1.36 7.34 0 7 C0 4.69 0 2.38 0 0 Z " fill="#C9A95D" transform="translate(20,29)"/>
</svg>
