<?xml version="1.0" encoding="UTF-8"?>
<svg version="1.1" xmlns="http://www.w3.org/2000/svg" width="215" height="71">
<path d="M0 0 C0.73511307 0.00359528 1.47022614 0.00719055 2.22761536 0.01089478 C2.99829346 0.01074875 3.76897156 0.01060272 4.56300354 0.01045227 C7.12237823 0.01115157 9.68168104 0.01894471 12.24104309 0.02676392 C14.01081299 0.02862804 15.7805834 0.03005197 17.550354 0.03105164 C22.2176505 0.03487728 26.88491607 0.04470796 31.55220032 0.05575562 C36.31110719 0.06596873 41.07001905 0.07054904 45.82893372 0.07559204 C55.17334837 0.08633019 64.51774004 0.10340717 73.86213684 0.12442017 C73.99809547 1.53838989 74.09457529 2.95618701 74.17463684 4.37442017 C74.23264465 5.16332642 74.29065247 5.95223267 74.35041809 6.76504517 C73.86213684 9.12442017 73.86213684 9.12442017 71.71084595 11.39291382 C68.45613579 13.37119629 66.74598411 13.61142537 62.97029114 13.57852173 C61.80946518 13.5782196 60.64863922 13.57791748 59.45263672 13.5776062 C58.20976395 13.55696106 56.96689117 13.53631592 55.68635559 13.51504517 C54.40605972 13.50938538 53.12576385 13.50372559 51.80667114 13.49789429 C48.41486471 13.48267469 45.02375136 13.44342651 41.63221741 13.39907837 C38.16663487 13.35804512 34.70093954 13.33986622 31.23518372 13.31973267 C24.4438297 13.27564829 17.65313231 13.20660882 10.86213684 13.12442017 C10.86213684 17.08442017 10.86213684 21.04442017 10.86213684 25.12442017 C18.78213684 25.12442017 26.70213684 25.12442017 34.86213684 25.12442017 C34.86213684 34.12442017 34.86213684 34.12442017 33.54963684 36.62442017 C30.7732266 39.09234038 28.18468003 39.24727508 24.63166809 39.22207642 C23.82922668 39.21885376 23.02678528 39.2156311 22.20002747 39.21231079 C21.36664856 39.20393188 20.53326965 39.19555298 19.67463684 39.18692017 C18.40716614 39.18015259 18.40716614 39.18015259 17.11408997 39.17324829 C15.03007529 39.1614742 12.94609707 39.14353907 10.86213684 39.12442017 C10.86213684 43.74442017 10.86213684 48.36442017 10.86213684 53.12442017 C12.62041809 53.10121704 14.37869934 53.07801392 16.19026184 53.05410767 C18.49754927 53.03534923 20.80484128 53.01714911 23.11213684 52.99942017 C24.27100403 52.98266235 25.42987122 52.96590454 26.62385559 52.94863892 C27.73889465 52.9421936 28.85393372 52.93574829 30.00276184 52.92910767 C31.54238586 52.91339722 31.54238586 52.91339722 33.1131134 52.89736938 C35.91309895 53.12862929 37.51178247 53.62343801 39.86213684 55.12442017 C42.41693814 58.57340192 41.92011126 61.97441789 41.86213684 66.12442017 C35.18693344 66.14968962 28.51174228 66.16725284 21.83650208 66.17935181 C19.56371093 66.18439342 17.29092304 66.19122654 15.0181427 66.19985962 C11.75910133 66.21193277 8.50010267 66.21765004 5.24104309 66.22207642 C4.21813675 66.2272377 3.19523041 66.23239899 2.1413269 66.23771667 C1.20042709 66.23779221 0.25952728 66.23786774 -0.70988464 66.23794556 C-1.54261398 66.24016617 -2.37534332 66.24238678 -3.23330688 66.24467468 C-5.13786316 66.12442017 -5.13786316 66.12442017 -6.13786316 65.12442017 C-6.23716848 63.13554523 -6.26585778 61.143116 -6.26725769 59.15176392 C-6.27040985 57.87373901 -6.27356201 56.59571411 -6.27680969 55.27896118 C-6.27501991 53.8732805 -6.27296896 52.46760012 -6.27067566 51.06192017 C-6.27134874 49.63084903 -6.2723188 48.19977801 -6.27357483 46.76870728 C-6.2750516 43.76584792 -6.27289792 40.76301826 -6.26823425 37.76016235 C-6.26253696 33.90289446 -6.26581608 30.04569613 -6.27180672 26.18843079 C-6.2754129 23.23228426 -6.27427348 20.27615434 -6.27167892 17.32000732 C-6.27100981 15.89737947 -6.27183753 14.47475014 -6.27415848 13.05212402 C-6.2766859 11.06710843 -6.27215358 9.08208758 -6.26725769 7.09707642 C-6.2664621 5.96536011 -6.2656665 4.8336438 -6.2648468 3.66763306 C-6.0387347 -0.86091253 -4.02562181 0.00830797 0 0 Z " fill="#D2AF63" transform="translate(9.137863159179688,0.875579833984375)"/>
<path d="M0 0 C40.59 0 81.18 0 123 0 C123 4.62 123 9.24 123 14 C82.41 14 41.82 14 0 14 C0 9.38 0 4.76 0 0 Z " fill="#F8F9FA" transform="translate(92,57)"/>
<path d="M0 0 C3.49931337 2.20327138 5.45629951 3.96202634 7.375 7.625 C8.8552689 15.61845208 8.66203402 22.67593197 5 30 C1.90656252 33.42487722 -1.49436934 33.76286154 -6 34 C-7.65 33.34 -9.3 32.68 -11 32 C-11.33 37.28 -11.66 42.56 -12 48 C-15.3 48 -18.6 48 -22 48 C-22 32.49 -22 16.98 -22 1 C-18 1 -14 1 -10 1 C-6.76305537 -0.61847231 -3.49891451 -0.57231315 0 0 Z M-11 9 C-12.78309824 13.37669568 -12.39007414 18.36878086 -11.3125 22.875 C-10.15699823 25.26656084 -10.15699823 25.26656084 -7.375 25.8125 C-6.199375 25.9053125 -6.199375 25.9053125 -5 26 C-2.62815858 22.44223788 -2.70175606 20.71979393 -2.6875 16.5 C-2.67074219 15.3553125 -2.65398437 14.210625 -2.63671875 13.03125 C-2.74641638 10.01981453 -2.74641638 10.01981453 -4.39453125 8.09375 C-7.31645638 6.10314407 -8.03404446 7.02269631 -11 9 Z " fill="#0973B0" transform="translate(100,19)"/>
<path d="M0 0 C3.3 0 6.6 0 10 0 C10 14.52 10 29.04 10 44 C7.03 44 4.06 44 1 44 C0.67 43.34 0.34 42.68 0 42 C-0.66 42.66 -1.32 43.32 -2 44 C-6.63586863 45.04963063 -9.84280575 45.47184523 -14 43 C-19.30498237 37.40029639 -19.29652234 32.43137111 -19.21484375 24.98046875 C-18.83659422 19.73311611 -17.37316883 16.53010241 -13.8125 12.5625 C-9.90346066 10.39081148 -7.43936372 10.63611773 -3 11 C-2.34 11.33 -1.68 11.66 -1 12 C-0.67 8.04 -0.34 4.08 0 0 Z M-6.66796875 19.62109375 C-8.3445711 22.61537771 -8.36751919 24.64707779 -8.3125 28.0625 C-8.30863281 29.10535156 -8.30476562 30.14820313 -8.30078125 31.22265625 C-8.19356608 34.21003164 -8.19356608 34.21003164 -6 37 C-2.70924004 36.62095792 -2.70924004 36.62095792 0 35 C0.12653198 32.50761431 0.18519825 30.05529559 0.1875 27.5625 C0.19974609 26.86833984 0.21199219 26.17417969 0.22460938 25.45898438 C0.22989842 23.63779099 0.12169207 21.8171308 0 20 C-0.66 19.34 -1.32 18.68 -2 18 C-5.02910335 17.65152076 -5.02910335 17.65152076 -6.66796875 19.62109375 Z " fill="#0C7DBC" transform="translate(200,8)"/>
<path d="M0 0 C23.1 0 46.2 0 70 0 C69 9 69 9 66 12 C63.73240662 12.38526917 63.73240662 12.38526917 61.04467773 12.40063477 C59.53181435 12.42064293 59.53181435 12.42064293 57.98838806 12.4410553 C56.89780594 12.44117111 55.80722382 12.44128693 54.68359375 12.44140625 C53.55736099 12.45461411 52.43112823 12.46782196 51.27076721 12.48143005 C47.65965368 12.52239857 44.0487935 12.54399534 40.4375 12.5625 C36.85128037 12.58637116 33.26529657 12.61469904 29.67921448 12.65428162 C27.44763867 12.67841314 25.21593954 12.69345433 22.98423767 12.69789124 C10.7275835 12.80068044 10.7275835 12.80068044 0 18 C0 12.06 0 6.12 0 0 Z " fill="#F76254" transform="translate(4,1)"/>
<path d="M0 0 C2.58423382 1.90417229 3.25281074 2.80020913 4.375 5.75 C4.60205078 8.59082031 4.60205078 8.59082031 4.5703125 11.828125 C4.56386719 12.98828125 4.55742187 14.1484375 4.55078125 15.34375 C4.53402344 16.5503125 4.51726562 17.756875 4.5 19 C4.49097656 20.22203125 4.48195312 21.4440625 4.47265625 22.703125 C4.44909513 25.71894782 4.41619706 28.73437492 4.375 31.75 C1.075 31.75 -2.225 31.75 -5.625 31.75 C-5.955 31.09 -6.285 30.43 -6.625 29.75 C-8.1409375 30.5234375 -8.1409375 30.5234375 -9.6875 31.3125 C-13.67124496 32.99452565 -16.41091313 32.99861833 -20.625 31.75 C-23.5625 29.625 -23.5625 29.625 -25.625 26.75 C-26.16356082 22.98007425 -25.9221258 20.56709595 -24.625 17 C-20.06166404 11.86624705 -13.14572779 11.33220784 -6.625 10.75 C-6.955 9.43 -7.285 8.11 -7.625 6.75 C-10.04119823 6.49969023 -10.04119823 6.49969023 -12.625 6.75 C-13.615 8.235 -13.615 8.235 -14.625 9.75 C-17.0078125 10.04296875 -17.0078125 10.04296875 -19.75 9.9375 C-20.66007812 9.91042969 -21.57015625 9.88335937 -22.5078125 9.85546875 C-23.20648438 9.82066406 -23.90515625 9.78585938 -24.625 9.75 C-24.14446314 5.42516825 -22.96718019 3.51923502 -19.625 0.75 C-13.84870966 -2.82033398 -6.19735385 -2.13701857 0 0 Z M-14.625 19.75 C-14.295 21.4 -13.965 23.05 -13.625 24.75 C-11.78799211 25.52242269 -11.78799211 25.52242269 -9.625 25.75 C-7.79384106 24.75484776 -7.79384106 24.75484776 -6.625 22.75 C-5.8980774 19.64160979 -5.8980774 19.64160979 -5.625 16.75 C-9.31918201 16.75 -11.40336178 18.03179295 -14.625 19.75 Z " fill="#0A78B6" transform="translate(136.625,20.25)"/>
<path d="M0 0 C6.460199 -0.36567164 6.460199 -0.36567164 8.9375 1.3125 C10 3 10 3 10 6 C9.01 6.33 8.02 6.66 7 7 C7.32597168 7.53463867 7.65194336 8.06927734 7.98779297 8.62011719 C9.25083717 11.58976381 9.22691131 13.85504683 9.1953125 17.078125 C9.18886719 18.23828125 9.18242187 19.3984375 9.17578125 20.59375 C9.15902344 21.8003125 9.14226562 23.006875 9.125 24.25 C9.11597656 25.47203125 9.10695312 26.6940625 9.09765625 27.953125 C9.07409513 30.96894782 9.04119706 33.98437492 9 37 C5.7 37 2.4 37 -1 37 C-1.09087891 34.65261719 -1.09087891 34.65261719 -1.18359375 32.2578125 C-1.26799066 30.21353181 -1.35263908 28.16926148 -1.4375 26.125 C-1.47681641 25.09246094 -1.51613281 24.05992188 -1.55664062 22.99609375 C-1.59853516 22.00996094 -1.64042969 21.02382813 -1.68359375 20.0078125 C-1.72025146 19.09660645 -1.75690918 18.18540039 -1.79467773 17.24658203 C-1.86577065 14.96516519 -1.86577065 14.96516519 -3 13 C-4.32 13 -5.64 13 -7 13 C-8.23060421 15.46120841 -8.2057723 17.25776866 -8.31640625 20.0078125 C-8.35830078 20.99394531 -8.40019531 21.98007812 -8.44335938 22.99609375 C-8.48267578 24.02863281 -8.52199219 25.06117187 -8.5625 26.125 C-8.60568359 27.16527344 -8.64886719 28.20554687 -8.69335938 29.27734375 C-8.79962768 31.8513983 -8.90033527 34.42568131 -9 37 C-12.3 37 -15.6 37 -19 37 C-19 26.44 -19 15.88 -19 5 C-16.03 5 -13.06 5 -10 5 C-9.67 5.66 -9.34 6.32 -9 7 C-8.484375 6.525625 -7.96875 6.05125 -7.4375 5.5625 C-4.33217325 3.57190593 -1.63367496 3.34939182 2 3 C1.34 2.67 0.68 2.34 0 2 C0 1.34 0 0.68 0 0 Z " fill="#0B7AB8" transform="translate(167,15)"/>
<path d="M0 0 C1.53415474 1.52988133 3.06075655 3.06318682 4.5625 4.625 C7.7656276 7.68886119 11.31654104 7.18562659 15.4921875 7.24609375 C17.01693278 7.27903444 18.54167222 7.31224605 20.06640625 7.34570312 C22.47147579 7.39309729 24.87652204 7.43752486 27.28173828 7.47680664 C29.60213979 7.51658359 31.92205508 7.56811588 34.2421875 7.62109375 C35.31737137 7.63371498 35.31737137 7.63371498 36.41427612 7.64659119 C40.07451652 7.73697458 42.9252141 7.91229293 46 10 C48.5548013 13.44898175 48.05797442 16.84999772 48 21 C41.3247966 21.02526945 34.64960543 21.04283268 27.97436523 21.05493164 C25.70157409 21.05997325 23.4287862 21.06680637 21.15600586 21.07543945 C17.89696449 21.08751261 14.63796583 21.09322987 11.37890625 21.09765625 C10.35599991 21.10281754 9.33309357 21.10797882 8.27919006 21.11329651 C7.33829025 21.11337204 6.39739044 21.11344757 5.42797852 21.11352539 C4.59524918 21.115746 3.76251984 21.11796661 2.90455627 21.12025452 C1 21 1 21 0 20 C-0.08669432 18.5112814 -0.10703494 17.018555 -0.09765625 15.52734375 C-0.09443359 14.62822266 -0.09121094 13.72910156 -0.08789062 12.80273438 C-0.07951172 11.85720703 -0.07113281 10.91167969 -0.0625 9.9375 C-0.05798828 8.98810547 -0.05347656 8.03871094 -0.04882812 7.06054688 C-0.0370011 4.70696935 -0.02052025 2.35351523 0 0 Z " fill="#118FD0" transform="translate(3,46)"/>
<path d="M0 0 C10.83766816 -0.92017937 10.83766816 -0.92017937 13.6875 1.3359375 C14.75 3 14.75 3 16 6 C16.474375 5.01 16.94875 4.02 17.4375 3 C20 0 20 0 22.26953125 -0.3984375 C24.53871994 -0.37699635 26.74627444 -0.26004526 29 0 C28.59007813 0.74765625 28.18015625 1.4953125 27.7578125 2.265625 C27.21898438 3.25046875 26.68015625 4.2353125 26.125 5.25 C25.59132813 6.22453125 25.05765625 7.1990625 24.5078125 8.203125 C24.01023437 9.12609375 23.51265625 10.0490625 23 11 C22.5978125 11.6381665 22.195625 12.27633301 21.78125 12.93383789 C20.75503117 14.97006184 20.75503117 14.97006184 21.69091797 16.90698242 C22.12033691 17.54998291 22.54975586 18.1929834 22.9921875 18.85546875 C23.44980469 19.55994141 23.90742187 20.26441406 24.37890625 20.99023438 C24.87261719 21.71533203 25.36632812 22.44042969 25.875 23.1875 C26.83211711 24.63840829 27.78792061 26.09018428 28.7421875 27.54296875 C29.1738623 28.18258545 29.60553711 28.82220215 30.05029297 29.48120117 C31 31 31 31 31 32 C26.90253653 32.47052212 23.07551955 32.72264753 19 32 C16.97658593 30.04102587 16.01316395 28.30845904 14.8671875 25.75 C14.58101562 25.1725 14.29484375 24.595 14 24 C13.34 24 12.68 24 12 24 C11.27121685 25.3112243 10.59145575 26.64989781 9.9375 28 C8.640625 30.21875 8.640625 30.21875 7 32 C3.89773147 32.7079002 1.12671341 32.49046485 -2 32 C2.69896491 22.25542523 2.69896491 22.25542523 5.375 18.625 C7.22017738 16.24841046 7.22017738 16.24841046 6.79296875 14.15625 C5.81254506 11.49027032 4.45330549 9.27592122 2.9375 6.875 C0 2.21647059 0 2.21647059 0 0 Z " fill="#0B78B6" transform="translate(45,20)"/>
<path d="M0 0 C5.64163077 -0.0988093 11.28275899 -0.17143996 16.92504883 -0.21972656 C18.84473441 -0.23985348 20.76435862 -0.2671579 22.68383789 -0.30175781 C25.44172296 -0.3502293 28.19879827 -0.37295742 30.95703125 -0.390625 C32.24623222 -0.42159271 32.24623222 -0.42159271 33.56147766 -0.45318604 C39.47871005 -0.45541902 39.47871005 -0.45541902 42.0847168 1.82128906 C43.34698046 4.82594121 42.77597148 6.89611408 42 10 C40.35 10 38.7 10 37 10 C36.505 9.01 36.505 9.01 36 8 C35.67 8.66 35.34 9.32 35 10 C34.01 10 33.02 10 32 10 C32 7.69 32 5.38 32 3 C31.01 3 30.02 3 29 3 C29 5.31 29 7.62 29 10 C28.67 10 28.34 10 28 10 C28 7.69 28 5.38 28 3 C27.01 3 26.02 3 25 3 C25.04125 3.78375 25.0825 4.5675 25.125 5.375 C25 8 25 8 23 10 C20.3984375 10.1953125 20.3984375 10.1953125 17.375 10.125 C15.87066406 10.09792969 15.87066406 10.09792969 14.3359375 10.0703125 C13.56507813 10.04710938 12.79421875 10.02390625 12 10 C11.67 9.34 11.34 8.68 11 8 C10.67 8.66 10.34 9.32 10 10 C8.35 10 6.7 10 5 10 C4.34 8.02 3.68 6.04 3 4 C2.01 4.495 2.01 4.495 1 5 C1.66 6.32 2.32 7.64 3 9 C1.35 9.33 -0.3 9.66 -2 10 C-1.01 9.67 -0.02 9.34 1 9 C0.484375 8.5875 -0.03125 8.175 -0.5625 7.75 C-1.036875 7.1725 -1.51125 6.595 -2 6 C-1.7181953 3.67511119 -1.04553582 2.09107165 0 0 Z " fill="#C5D0DC" transform="translate(154,57)"/>
<path d="M0 0 C13.2 0 26.4 0 40 0 C42.25 6.75 42.25 6.75 41 10 C41 9.34 41 8.68 41 8 C40.01 8 39.02 8 38 8 C38 8.66 38 9.32 38 10 C37.34 10 36.68 10 36 10 C36 8.68 36 7.36 36 6 C35.34 7.32 34.68 8.64 34 10 C33.34 10 32.68 10 32 10 C32 9.01 32 8.02 32 7 C31.34 7 30.68 7 30 7 C30 7.99 30 8.98 30 10 C29.34 10 28.68 10 28 10 C27.67 8.02 27.34 6.04 27 4 C26.01 4 25.02 4 24 4 C24 5.98 24 7.96 24 10 C23.34 10 22.68 10 22 10 C22 8.02 22 6.04 22 4 C21.01 4.33 20.02 4.66 19 5 C19 5.66 19 6.32 19 7 C18.34 7 17.68 7 17 7 C17 7.99 17 8.98 17 10 C16.01 9.67 15.02 9.34 14 9 C11.99453311 9.29868656 9.99422795 9.63371323 8 10 C5.33333333 10 2.66666667 10 0 10 C0 6.7 0 3.4 0 0 Z " fill="#D5DDE6" transform="translate(92,57)"/>
<path d="M0 0 C2.97 0 5.94 0 9 0 C9.60729912 8.25926807 9.60729912 8.25926807 7.26879883 11.11157227 C2.13355758 14.07826814 -2.9597968 13.58342513 -8.7890625 13.57421875 C-10.04326996 13.58838333 -11.29747742 13.60254791 -12.58969116 13.61714172 C-15.92293134 13.65196948 -19.2553961 13.67033639 -22.58874512 13.67993164 C-27.25798162 13.69728628 -31.92700099 13.74486721 -36.59603882 13.78999329 C-39.07696566 13.81223277 -41.55795947 13.82820088 -44.03897095 13.83683777 C-49.43734448 13.87002556 -54.83352322 13.95991483 -60.22412109 14.26098633 C-61.09926361 14.30580643 -61.97440613 14.35062653 -62.87606812 14.39680481 C-65.16134021 14.77665863 -65.16134021 14.77665863 -66.04849243 16.85868835 C-66.36248993 17.5653212 -66.67648743 18.27195404 -67 19 C-68.32 19.99 -69.64 20.98 -71 22 C-71 15.07 -71 8.14 -71 1 C-70.67 1 -70.34 1 -70 1 C-69.67 6.28 -69.34 11.56 -69 17 C-68.01 16.01 -67.02 15.02 -66 14 C-58.89781474 11.49825663 -51.18212688 11.73318997 -43.75390625 11.76171875 C-41.43033256 11.74632072 -39.10676471 11.73001875 -36.78320312 11.71289062 C-33.15326954 11.69634941 -29.52376758 11.68757475 -25.89379883 11.69458008 C-22.3675101 11.697186 -18.84252168 11.66921104 -15.31640625 11.63671875 C-14.22582413 11.64692551 -13.135242 11.65713226 -12.01161194 11.66764832 C-9.250833 11.63154952 -6.70340696 11.56021036 -4 11 C-0.94726355 7.70965631 -0.51159191 4.39969044 0 0 Z " fill="#D97C65" transform="translate(74,1)"/>
<path d="M0 0 C2.97 0 5.94 0 9 0 C9 4.29 9 8.58 9 13 C8.071875 13.45375 7.14375 13.9075 6.1875 14.375 C2.96078611 15.9421633 2.96078611 15.9421633 0 18 C0 12.06 0 6.12 0 0 Z " fill="#9A3D34" transform="translate(4,1)"/>
<path d="M0 0 C1.53415474 1.52988133 3.06075655 3.06318682 4.5625 4.625 C5.972776 6.10933511 5.972776 6.10933511 8 7 C8 11.62 8 16.24 8 21 C5.69 21 3.38 21 1 21 C0 20 0 20 -0.11352539 18.05053711 C-0.10567017 16.8015564 -0.10567017 16.8015564 -0.09765625 15.52734375 C-0.09443359 14.62822266 -0.09121094 13.72910156 -0.08789062 12.80273438 C-0.07951172 11.85720703 -0.07113281 10.91167969 -0.0625 9.9375 C-0.05798828 8.98810547 -0.05347656 8.03871094 -0.04882812 7.06054688 C-0.0370011 4.70696935 -0.02052025 2.35351523 0 0 Z " fill="#135C7F" transform="translate(3,46)"/>
<path d="M0 0 C2.64 0 5.28 0 8 0 C8 3.96 8 7.92 8 12 C5.36 12.33 2.72 12.66 0 13 C0 8.71 0 4.42 0 0 Z " fill="#DE584B" transform="translate(13,1)"/>
<path d="M0 0 C3.13005672 2.59310138 5.41896827 4.90284073 6.9296875 8.734375 C6.9296875 10.054375 6.9296875 11.374375 6.9296875 12.734375 C5.1171875 12.609375 5.1171875 12.609375 2.9296875 11.734375 C1.89535846 9.75191102 0.89730358 7.75024184 -0.0703125 5.734375 C-2.30297013 3.60544704 -3.55871246 2.79251137 -6.6484375 2.44140625 C-7.53015625 2.47621094 -8.411875 2.51101562 -9.3203125 2.546875 C-10.21234375 2.57394531 -11.104375 2.60101562 -12.0234375 2.62890625 C-13.03664062 2.68111328 -13.03664062 2.68111328 -14.0703125 2.734375 C-14.4003125 1.414375 -14.7303125 0.094375 -15.0703125 -1.265625 C-9.92805862 -2.76303076 -4.68123395 -2.86173547 0 0 Z " fill="#F86254" transform="translate(179.0703125,8.265625)"/>
<path d="M0 0 C7.38533178 -0.48428405 7.38533178 -0.48428405 10.0625 1.625 C11.29531307 4.74812645 10.80239884 6.79040466 10 10 C8.35 10 6.7 10 5 10 C4.34 8.02 3.68 6.04 3 4 C2.01 4.495 2.01 4.495 1 5 C1.66 6.32 2.32 7.64 3 9 C1.35 9.33 -0.3 9.66 -2 10 C-1.01 9.67 -0.02 9.34 1 9 C0.484375 8.5875 -0.03125 8.175 -0.5625 7.75 C-1.036875 7.1725 -1.51125 6.595 -2 6 C-1.7181953 3.67511119 -1.04553582 2.09107165 0 0 Z " fill="#7893AE" transform="translate(154,57)"/>
<path d="M0 0 C3.63 0 7.26 0 11 0 C11 0.66 11 1.32 11 2 C10.01 2.33 9.02 2.66 8 3 C7.896875 3.78375 7.79375 4.5675 7.6875 5.375 C7 8 7 8 4 10 C2.68 10 1.36 10 0 10 C0 6.7 0 3.4 0 0 Z " fill="#B9C7D5" transform="translate(92,57)"/>
<path d="M0 0 C1.65 0 3.3 0 5 0 C5.29354833 3.05290263 5.41409388 5.95457539 5 9 C2.875 11.5625 2.875 11.5625 0 13 C-3.3125 13.25 -3.3125 13.25 -6 13 C-5.36578125 12.78601562 -4.7315625 12.57203125 -4.078125 12.3515625 C-1.74386889 11.14561047 -1.74386889 11.14561047 -1.171875 8.3984375 C-1.03265625 7.40070312 -0.8934375 6.40296875 -0.75 5.375 C-0.60046875 4.37210937 -0.4509375 3.36921875 -0.296875 2.3359375 C-0.19890625 1.56507812 -0.1009375 0.79421875 0 0 Z " fill="#1790CD" transform="translate(78,1)"/>
<path d="M0 0 C0.66 0 1.32 0 2 0 C2.33 0.66 2.66 1.32 3 2 C3.33 1.34 3.66 0.68 4 0 C4.66 0 5.32 0 6 0 C6 1.32 6 2.64 6 4 C6.66 4 7.32 4 8 4 C8 2.68 8 1.36 8 0 C9.32 0.33 10.64 0.66 12 1 C11.01 1 10.02 1 9 1 C9.7734375 1.61875 9.7734375 1.61875 10.5625 2.25 C11.036875 2.8275 11.51125 3.405 12 4 C11.6875 6.1875 11.6875 6.1875 11 8 C7.625 8.1875 7.625 8.1875 4 8 C3.34 7.01 2.68 6.02 2 5 C1.34 5.99 0.68 6.98 0 8 C0 5.36 0 2.72 0 0 Z " fill="#3E658B" transform="translate(199,59)"/>
<path d="M0 0 C2.64 0 5.28 0 8 0 C6.68 0.33 5.36 0.66 4 1 C4 4.96 4 8.92 4 13 C2.68 13 1.36 13 0 13 C0 8.71 0 4.42 0 0 Z " fill="#127FB8" transform="translate(11,54)"/>
<path d="M0 0 C1.32 0 2.64 0 4 0 C4.48309179 7.24637681 4.48309179 7.24637681 2.4375 10.4375 C-0.68103694 12.43656214 -3.34186183 12.71860476 -7 13 C-6.21625 12.525625 -5.4325 12.05125 -4.625 11.5625 C-1.0689031 8.09107207 -0.68652451 4.7954249 0 0 Z " fill="#D5B56D" transform="translate(74,1)"/>
<path d="M0 0 C4.99754367 -0.29397316 7.98418348 -0.0979156 12 3 C14 6 14 6 14 10 C13.01 9.67 12.02 9.34 11 9 C10.5978125 8.0409375 10.5978125 8.0409375 10.1875 7.0625 C9.10305269 4.70534872 9.10305269 4.70534872 6.125 3.75 C2.88736514 2.84441803 2.88736514 2.84441803 -1 3 C-0.67 2.01 -0.34 1.02 0 0 Z " fill="#DFBA69" transform="translate(167,11)"/>
<path d="M0 0 C0.33 0 0.66 0 1 0 C1.33 5.28 1.66 10.56 2 16 C2.99 15.01 3.98 14.02 5 13 C7.88211302 12.03929566 9.69850044 11.89418117 12.6875 11.9375 C13.89986328 11.95103516 13.89986328 11.95103516 15.13671875 11.96484375 C16.05904297 11.98224609 16.05904297 11.98224609 17 12 C17 12.33 17 12.66 17 13 C15.84371094 13.03867187 15.84371094 13.03867187 14.6640625 13.078125 C13.66117188 13.13484375 12.65828125 13.1915625 11.625 13.25 C10.62726562 13.29640625 9.62953125 13.3428125 8.6015625 13.390625 C7.74304688 13.59171875 6.88453125 13.7928125 6 14 C4.84062057 15.86013196 4.84062057 15.86013196 4 18 C2.68 18.99 1.36 19.98 0 21 C0 14.07 0 7.14 0 0 Z " fill="#A47850" transform="translate(3,2)"/>
<path d="M0 0 C2.125 0.375 2.125 0.375 4 1 C5.125 5.75 5.125 5.75 4 8 C2.35 8 0.7 8 -1 8 C-1.625 5.125 -1.625 5.125 -2 2 C-1.34 1.34 -0.68 0.68 0 0 Z " fill="#7893AE" transform="translate(192,59)"/>
<path d="M0 0 C1.67542976 0.28604898 3.34385343 0.61781233 5 1 C5 2.98 5 4.96 5 7 C3.34385343 7.38218767 1.67542976 7.71395102 0 8 C-1 7 -1 7 -1.125 4 C-1 1 -1 1 0 0 Z " fill="#27527D" transform="translate(100,59)"/>
<path d="M0 0 C2.64 0 5.28 0 8 0 C8 0.66 8 1.32 8 2 C4.535 3.485 4.535 3.485 1 5 C1.66 6.32 2.32 7.64 3 9 C1.35 9.33 -0.3 9.66 -2 10 C-1.01 9.67 -0.02 9.34 1 9 C0.484375 8.5875 -0.03125 8.175 -0.5625 7.75 C-1.036875 7.1725 -1.51125 6.595 -2 6 C-1.7181953 3.67511119 -1.04553582 2.09107165 0 0 Z " fill="#95AABF" transform="translate(154,57)"/>
<path d="M0 0 C0.33 1.32 0.66 2.64 1 4 C1.66 4 2.32 4 3 4 C3 2.68 3 1.36 3 0 C3.66 0 4.32 0 5 0 C5 0.66 5 1.32 5 2 C5.66 2 6.32 2 7 2 C7.33 1.34 7.66 0.68 8 0 C8.125 5.75 8.125 5.75 7 8 C6.34 8 5.68 8 5 8 C5 7.01 5 6.02 5 5 C4.34 5 3.68 5 3 5 C3 5.99 3 6.98 3 8 C2.34 8 1.68 8 1 8 C-0.35439668 5.29120665 -0.06501451 2.99066732 0 0 Z " fill="#40668C" transform="translate(119,59)"/>
<path d="M0 0 C0.99 0 1.98 0 3 0 C3 3.96 3 7.92 3 12 C2.01 12.33 1.02 12.66 0 13 C0 8.71 0 4.42 0 0 Z " fill="#BD4B3F" transform="translate(13,1)"/>
<path d="M0 0 C6.460199 -0.36567164 6.460199 -0.36567164 8.9375 1.3125 C10 3 10 3 10 6 C6.05879291 5.43697042 3.2491277 4.3208055 0 2 C0 1.34 0 0.68 0 0 Z " fill="#279CA8" transform="translate(167,15)"/>
<path d="M0 0 C2.475 0.495 2.475 0.495 5 1 C5 3.31 5 5.62 5 8 C3.33333333 8 1.66666667 8 0 8 C0 5.36 0 2.72 0 0 Z " fill="#547698" transform="translate(136,59)"/>
<path d="M0 0 C1.32 0.33 2.64 0.66 4 1 C3.01 1 2.02 1 1 1 C1.7734375 1.61875 1.7734375 1.61875 2.5625 2.25 C3.036875 2.8275 3.51125 3.405 4 4 C3.6875 6.1875 3.6875 6.1875 3 8 C1.68 8 0.36 8 -1 8 C-1.33 6.68 -1.66 5.36 -2 4 C-1.34 4 -0.68 4 0 4 C0 2.68 0 1.36 0 0 Z " fill="#748FAB" transform="translate(207,59)"/>
<path d="M0 0 C0.99 0.33 1.98 0.66 3 1 C3.33 3.31 3.66 5.62 4 8 C3.67 7.34 3.34 6.68 3 6 C2.01 6 1.02 6 0 6 C0 6.66 0 7.32 0 8 C-0.66 8 -1.32 8 -2 8 C-1.34 5.36 -0.68 2.72 0 0 Z " fill="#44698E" transform="translate(130,59)"/>
<path d="M0 0 C1.32 0 2.64 0 4 0 C4 1.65 4 3.3 4 5 C3.34 5 2.68 5 2 5 C2 5.66 2 6.32 2 7 C2.66 7.33 3.32 7.66 4 8 C2.68 8 1.36 8 0 8 C0 5.36 0 2.72 0 0 Z " fill="#42678D" transform="translate(143,59)"/>
<path d="M0 0 C0.99 0.495 0.99 0.495 2 1 C2 2.65 2 4.3 2 6 C2.66 6 3.32 6 4 6 C4 4.02 4 2.04 4 0 C4.33 0 4.66 0 5 0 C5 2.31 5 4.62 5 7 C3.0625 7.5625 3.0625 7.5625 1 8 C0 7 0 7 -0.0625 3.4375 C-0.041875 2.303125 -0.02125 1.16875 0 0 Z " fill="#456A8F" transform="translate(173,59)"/>
<path d="M0 0 C1.32 0.33 2.64 0.66 4 1 C3.34 1 2.68 1 2 1 C2 1.66 2 2.32 2 3 C2.66 3 3.32 3 4 3 C4 3.66 4 4.32 4 5 C3.34 5 2.68 5 2 5 C2 5.99 2 6.98 2 8 C1.34 8 0.68 8 0 8 C0 5.36 0 2.72 0 0 Z " fill="#557799" transform="translate(107,59)"/>
<path d="M0 0 C1.32 0 2.64 0 4 0 C3.67 1.65 3.34 3.3 3 5 C2.01 4.67 1.02 4.34 0 4 C0 2.68 0 1.36 0 0 Z " fill="#DFE6EC" transform="translate(100,61)"/>
</svg>
