<?xml version="1.0" encoding="UTF-8"?>
<svg version="1.1" xmlns="http://www.w3.org/2000/svg" width="2535" height="629">
<path d="M0 0 C18.624375 -0.0825 37.24875 -0.165 56.4375 -0.25 C65.21106079 -0.30462402 65.21106079 -0.30462402 74.16186523 -0.36035156 C81.3848877 -0.37841797 81.3848877 -0.37841797 84.78187561 -0.3817749 C87.12032631 -0.38785874 89.45876563 -0.40180349 91.7971344 -0.42230225 C108.5267142 -0.5614407 125.26692522 -0.51456821 140.375 7.6875 C141.35448608 8.20231934 141.35448608 8.20231934 142.35375977 8.72753906 C158.32902089 17.42310836 169.42700683 31.23278563 174.8137207 48.62768555 C176.87637074 56.09079515 177.5100748 63.08846722 177.4375 70.8125 C177.42614014 72.51817139 177.42614014 72.51817139 177.41455078 74.25830078 C177.05523092 92.65705154 171.19277837 107.97096179 158 121 C157.45859375 121.56332031 156.9171875 122.12664062 156.359375 122.70703125 C148.62263552 130.11163797 137.24144823 134.52223027 127 137 C127 140.23504159 129.2700472 141.6380866 131.4375 143.9375 C134.85559019 147.60645919 138.12440854 151.32388041 141.25 155.25 C146.13246659 161.30530109 151.45206494 166.9119421 156.78125 172.5703125 C160.28935005 176.29666763 163.67997691 180.10535753 167 184 C168.43240726 185.67776338 169.86543988 187.35498617 171.29931641 189.03149414 C172.34477372 190.25465004 173.38873517 191.47908615 174.43115234 192.70483398 C176.82903057 195.51448056 179.24383043 198.29221556 181.7734375 200.984375 C182.99933594 202.29148437 182.99933594 202.29148437 184.25 203.625 C184.97703125 204.38039063 185.7040625 205.13578125 186.453125 205.9140625 C188 208 188 208 188 212 C181.24277878 212.33218272 174.48768728 212.55827984 167.72412109 212.71411133 C165.42872484 212.77911798 163.13385925 212.8675638 160.84033203 212.98071289 C140.7515329 213.94626848 140.7515329 213.94626848 134.90454102 209.24389648 C132.25864735 206.62310279 130.09841934 203.78119427 128.0861969 200.65415955 C126.40085479 198.08756712 124.41089408 195.78527591 122.4375 193.4375 C121.72464844 192.54933594 121.01179687 191.66117188 120.27734375 190.74609375 C117.78173531 187.73680948 115.16234857 184.86061346 112.5 182 C108.23079221 177.41242561 104.24241261 172.66556996 100.3125 167.78125 C96.58470894 163.29782561 92.60973996 159.03816917 88.55249023 154.85083008 C87 153 87 153 85.34008789 150.2175293 C81.70528027 144.57318536 81.70528027 144.57318536 75.97503662 141.38580322 C70.14658495 140.44697002 64.32148957 140.66419764 58.4375 140.8125 C52.353125 140.874375 46.26875 140.93625 40 141 C40 164.43 40 187.86 40 212 C26.8 212 13.6 212 0 212 C0 142.04 0 72.08 0 0 Z M40 38 C40 60.11 40 82.22 40 105 C49.796875 105.04125 59.59375 105.0825 69.6875 105.125 C74.28691528 105.15231201 74.28691528 105.15231201 78.97924805 105.18017578 C81.44840318 105.1860248 83.91756025 105.19111938 86.38671875 105.1953125 C87.63731079 105.20554443 88.88790283 105.21577637 90.1763916 105.22631836 C103.9469023 105.22900923 117.33219 104.4708703 127.875 94.6875 C135.39882051 86.56035427 136.47733847 77.72027644 136.2734375 67.0546875 C135.89955356 59.05505187 132.63360825 52.63583268 127.19921875 46.82421875 C119.81915142 40.70256432 111.63988506 37.86927028 102.21191406 37.88647461 C101.53833359 37.88632858 100.86475311 37.88618256 100.17076111 37.8860321 C97.95234924 37.88672676 95.73402214 37.89449819 93.515625 37.90234375 C91.97434536 37.90420952 90.43306512 37.90563267 88.89178467 37.90663147 C84.84102737 37.91044415 80.79030609 37.92026376 76.73956299 37.93133545 C71.8761825 37.94337795 67.01278995 37.94795776 62.1493988 37.95378876 C54.76624084 37.96347619 47.38316187 37.98264147 40 38 Z " fill="#D71C41" transform="translate(880,171)"/>
<path d="M0 0 C52.8 0 105.6 0 160 0 C160 12.87 160 25.74 160 39 C120.4 39 80.8 39 40 39 C40 54.84 40 70.68 40 87 C77.95 87 115.9 87 155 87 C155 99.54 155 112.08 155 125 C117.05 125 79.1 125 40 125 C40 140.51 40 156.02 40 172 C79.6 172 119.2 172 160 172 C160 185.53 160 199.06 160 213 C107.2 213 54.4 213 0 213 C0 142.71 0 72.42 0 0 Z " fill="#D71C41" transform="translate(690,171)"/>
<path d="M0 0 C15.18 0 30.36 0 46 0 C64.54612386 40.91056735 64.54612386 40.91056735 73 60 C78.77019677 73.02893494 84.6150714 86.02249412 90.5 99 C96.38492942 111.97750769 102.22962684 124.97114223 108 138 C115.17834773 154.20701135 122.46877653 170.36237672 129.78640747 186.50692749 C130.52941176 188.14649043 131.27184159 189.78631385 132.01364136 191.42642212 C133.54464826 194.80840956 135.08585011 198.18355294 136.65869141 201.54638672 C137.11808105 202.53010254 137.5774707 203.51381836 138.05078125 204.52734375 C138.43532471 205.3380835 138.81986816 206.14882324 139.21606445 206.98413086 C140 209 140 209 140 212 C125.15 212 110.3 212 95 212 C92.9375 207.400625 90.875 202.80125 88.75 198.0625 C88.10772461 196.63043213 87.46544922 195.19836426 86.80371094 193.72290039 C85.99864284 191.9272779 85.19366195 190.13161567 84.39031982 188.33522034 C83.1639499 185.59301111 81.93302548 182.85328799 80.68554688 180.12060547 C80.32009766 179.3163916 79.95464844 178.51217773 79.578125 177.68359375 C79.2677832 177.0073999 78.95744141 176.33120605 78.63769531 175.63452148 C78 174 78 174 78 172 C41.7 172 5.4 172 -32 172 C-32.66 173.98 -33.32 175.96 -34 178 C-34.50663739 179.24105515 -35.03349185 180.47422334 -35.58813477 181.69458008 C-35.88506729 182.35158401 -36.18199982 183.00858795 -36.4879303 183.6855011 C-36.80257736 184.37323105 -37.11722443 185.060961 -37.44140625 185.76953125 C-37.76914536 186.49113937 -38.09688446 187.2127475 -38.43455505 187.95622253 C-39.12312688 189.47042005 -39.81317895 190.98394523 -40.50463867 192.49682617 C-41.56635825 194.82094577 -42.62236349 197.14760107 -43.67773438 199.47460938 C-44.34862214 200.94806979 -45.01983451 202.42138245 -45.69140625 203.89453125 C-46.00807755 204.59238235 -46.32474884 205.29023346 -46.65101624 206.00923157 C-48.88464969 210.88464969 -48.88464969 210.88464969 -50 212 C-51.38160115 212.0927833 -52.76788038 212.11747043 -54.15258789 212.11352539 C-55.03342545 212.11344986 -55.914263 212.11337433 -56.8217926 212.11329651 C-57.77907761 212.10813522 -58.73636261 212.10297394 -59.72265625 212.09765625 C-60.69786728 212.0962413 -61.67307831 212.09482635 -62.67784119 212.09336853 C-65.80609143 212.08775133 -68.93427123 212.07519593 -72.0625 212.0625 C-74.17773334 212.05748722 -76.29296781 212.05292393 -78.40820312 212.04882812 C-83.60549296 212.03777631 -88.80274145 212.02102146 -94 212 C-93.33437925 207.03630029 -91.27817183 202.84505812 -89.203125 198.34375 C-88.81831467 197.49779266 -88.43350433 196.65183533 -88.03703308 195.78024292 C-86.77939736 193.01798791 -85.51463453 190.25905679 -84.25 187.5 C-83.37317836 185.57660847 -82.49696209 183.65294086 -81.62133789 181.72900391 C-79.87771172 177.89829446 -78.13214267 174.06848042 -76.38525391 170.23925781 C-73.37334687 163.63085545 -70.40010523 157.00563878 -67.4375 150.375 C-63.889968 142.44478665 -60.33500774 134.51805486 -56.765625 126.59765625 C-49.16600634 109.73265582 -41.59151035 92.85772371 -34.09677124 75.9458313 C-27.68822634 61.49103588 -21.1786069 47.08262498 -14.64477539 32.68408203 C-14.07129112 31.41954193 -14.07129112 31.41954193 -13.48622131 30.12945557 C-12.789718 28.59396343 -12.0926525 27.05872605 -11.39476013 25.52386475 C-7.54521576 17.03818252 -3.78481568 8.51583528 0 0 Z M22 47 C21.28075269 48.65003795 20.56150739 50.30007679 19.8422699 51.95011902 C19.1863463 53.45486293 18.53039002 54.95959259 17.87440491 56.46430969 C16.00520061 60.75208446 14.13660631 65.04012351 12.26904297 69.32861328 C8.64771733 77.64263928 5.02296209 85.95505927 1.37651062 94.25810242 C-0.1712863 97.78301874 -1.71624694 101.30917496 -3.26101685 104.8354187 C-3.99826909 106.51615509 -4.73691654 108.19628023 -5.47702026 109.87576294 C-6.51692323 112.23592748 -7.55190018 114.5981984 -8.5859375 116.9609375 C-8.88837875 117.64384354 -9.19082001 118.32674957 -9.50242615 119.03034973 C-11.66081726 123.98074516 -13.27425814 128.82277443 -15 134 C10.08 134 35.16 134 61 134 C59.07499568 128.22498705 57.16036217 122.7982815 54.6640625 117.30078125 C54.34821701 116.59539719 54.03237152 115.89001312 53.70695496 115.16325378 C53.03222461 113.657187 52.35566495 112.15193861 51.67739868 110.64746094 C49.87596562 106.65061459 48.08912326 102.64724785 46.30078125 98.64453125 C45.93895248 97.83553375 45.57712372 97.02653625 45.20433044 96.19302368 C41.68638162 88.31865272 38.23689644 80.41542697 34.8125 72.5 C34.29703613 71.31059814 33.78157227 70.12119629 33.25048828 68.89575195 C30.10704976 61.6216922 27.02863173 54.32258806 24 47 C23.34 47 22.68 47 22 47 Z " fill="#D71C41" transform="translate(1629,171)"/>
<path d="M0 0 C0.72344604 0.00021149 1.44689209 0.00042297 2.19226074 0.00064087 C27.07344234 0.07303771 51.10282475 5.45098066 69.74609375 23.046875 C83 36.73721837 83 36.73721837 83 43.375 C82.38068604 43.68203857 81.76137207 43.98907715 81.12329102 44.30541992 C78.2686005 45.72225532 75.41554657 47.14235733 72.5625 48.5625 C71.58861328 49.04525391 70.61472656 49.52800781 69.61132812 50.02539062 C68.64775391 50.50556641 67.68417969 50.98574219 66.69140625 51.48046875 C65.73379395 51.95661621 64.77618164 52.43276367 63.78955078 52.92333984 C60.4089475 54.68257904 57.16917714 56.63802824 53.95288086 58.6809082 C52 59.375 52 59.375 49.90063477 58.69604492 C48 57.375 48 57.375 45.5625 54.25 C36.15122595 42.98463456 20.12698154 37.99935676 6 36.375 C-8.01080387 35.33863897 -24.66098227 37.45986838 -35.7421875 46.8515625 C-40.44964397 52.06040487 -42.64250147 58.17631296 -42.3359375 65.109375 C-41.4652922 70.98116888 -38.99544344 75.0056858 -34.25 78.5625 C-21.9544987 85.7366102 -7.54964712 87.51310336 6.3125 89.375 C16.40947463 90.74002236 26.33243528 92.26788249 36.19921875 94.85546875 C36.95809891 95.05442749 37.71697906 95.25338623 38.49885559 95.45837402 C55.22355088 100.04209803 70.61795188 108.03403859 81 122.375 C90.18271628 138.57283859 92.37560625 159.28623623 87.5637207 177.34912109 C82.16515542 194.27514916 70.80732733 206.20728268 55.23828125 214.28955078 C37.83357326 223.00558772 19.55739737 225.60922205 0.25 225.625 C-0.85731476 225.62601212 -0.85731476 225.62601212 -1.98699951 225.62704468 C-28.76774542 225.58815826 -55.75139632 220.70199509 -75.421875 201.08203125 C-81.1775919 195.0385285 -85.49547166 188.79582618 -89.5 181.5 C-89.86319336 180.84483398 -90.22638672 180.18966797 -90.60058594 179.51464844 C-91.48307385 177.8425204 -92.25069235 176.11089606 -93 174.375 C-92 171.375 -92 171.375 -89.79443359 169.99633789 C-88.83875488 169.53477295 -87.88307617 169.07320801 -86.8984375 168.59765625 C-85.85042969 168.08396484 -84.80242187 167.57027344 -83.72265625 167.04101562 C-82.61792969 166.51185547 -81.51320313 165.98269531 -80.375 165.4375 C-78.21526804 164.38852411 -76.05639162 163.33778466 -73.8984375 162.28515625 C-72.87588867 161.78902832 -71.85333984 161.29290039 -70.79980469 160.78173828 C-68.44230214 159.59723099 -66.17752894 158.34810119 -63.9140625 156.99609375 C-61 155.375 -61 155.375 -58 155.375 C-57.67128906 156.06464844 -57.34257813 156.75429688 -57.00390625 157.46484375 C-50.12928351 171.0464155 -40.21483587 178.8957803 -26.0625 184.125 C-7.01944648 190.33781754 15.5658807 190.21800594 33.6875 181.1875 C40.70539503 177.02644719 45.39275705 171.42538586 47.56640625 163.52734375 C48.87797513 157.01676307 47.90628801 151.28200416 45 145.375 C38.05645494 135.13692005 24.5921442 131.71082248 13.109375 129.30078125 C6.83964108 128.09887072 0.51171578 127.2938645 -5.8125 126.4375 C-30.60543448 123.05672044 -56.39779631 117.88688539 -73.28515625 97.71875 C-80.98131673 87.20007964 -83.56719603 75.27740686 -83.4375 62.4375 C-83.42992676 61.38353027 -83.42235352 60.32956055 -83.41455078 59.24365234 C-83.25456103 51.70077765 -82.48463445 45.17165542 -79 38.375 C-78.55269531 37.50101563 -78.10539062 36.62703125 -77.64453125 35.7265625 C-67.65432534 17.88882218 -51.18606791 9.37064622 -32.25 3.453125 C-21.58538337 0.58287571 -10.99249504 -0.029729 0 0 Z " fill="#D71C41" transform="translate(2048,163.625)"/>
<path d="M0 0 C2.10102343 2.00312628 2.98480501 3.49112674 4.1796875 6.078125 C0.70851575 9.67272463 -2.77864149 13.25071397 -6.28173828 16.81420898 C-7.47151865 18.02916216 -8.65677667 19.24856098 -9.83740234 20.47241211 C-11.53359383 22.229131 -13.24531525 23.9693102 -14.9609375 25.70703125 C-15.48713684 26.25903702 -16.01333618 26.81104279 -16.55548096 27.379776 C-18.07128906 28.89672852 -18.07128906 28.89672852 -20.8203125 31.078125 C-24.86019344 30.99302274 -27.65920243 28.16796628 -30.8203125 25.828125 C-48.51657427 13.18400972 -69.45828689 10.26626219 -90.59667969 13.65527344 C-107.2616185 16.82431977 -122.57140599 25.6726457 -132.38671875 39.7421875 C-144.57527979 59.60256762 -148.4830485 81.31314391 -143.359375 104.13085938 C-140.85823747 114.26046636 -136.80747099 122.5427131 -130.8203125 131.078125 C-130.0778125 132.150625 -129.3353125 133.223125 -128.5703125 134.328125 C-113.44324243 149.45519507 -94.07972366 155.33852506 -73.08764648 155.3972168 C-52.75865098 155.0792878 -35.69237631 146.17521147 -19.8203125 134.078125 C-16.1262113 137.69804746 -12.44209018 141.32773081 -8.7668457 144.96679688 C-7.51530709 146.2032528 -6.26108865 147.43700232 -5.00415039 148.66796875 C-3.19746237 150.43825175 -1.40064847 152.21805719 0.39453125 154 C0.95808823 154.54807312 1.5216452 155.09614624 2.10227966 155.66082764 C4.84451724 158.40187134 6.46130572 160.26933351 7.1796875 164.078125 C-12.61323157 181.73326137 -37.42813984 194.11259407 -64.46484375 194.28125 C-65.19289719 194.28695007 -65.92095062 194.29265015 -66.67106628 194.29852295 C-68.2116045 194.3079342 -69.7521625 194.31449145 -71.29272461 194.31835938 C-73.58811494 194.32793847 -75.88255851 194.3589435 -78.17773438 194.390625 C-91.7448396 194.48874819 -105.07139737 192.89965067 -117.9453125 188.390625 C-118.68265625 188.13716309 -119.42 187.88370117 -120.1796875 187.62255859 C-131.9229574 183.4180846 -142.56740687 177.50855013 -151.8203125 169.078125 C-152.79742188 168.19382812 -153.77453125 167.30953125 -154.78125 166.3984375 C-175.47897374 147.03805484 -186.05370958 118.78906211 -187.0390625 90.765625 C-187.79031642 57.14913833 -178.27294146 26.72584832 -155.0703125 1.890625 C-112.00190773 -39.02435953 -44.54423533 -35.89361571 0 0 Z " fill="#D71C41" transform="translate(1536.8203125,193.921875)"/>
<path d="M0 0 C15.18 0 30.36 0 46 0 C57.66065555 28.86490145 68.80441802 57.93263816 80.00705719 86.97758865 C80.73550615 88.86621395 81.46403074 90.75481006 82.19256592 92.6434021 C84.52146725 98.68096631 86.84924517 104.71896001 89.17480469 110.7578125 C90.04353277 113.01175229 90.91234685 115.26565894 91.78125 117.51953125 C92.20158508 118.61117584 92.62192017 119.70282043 93.05499268 120.82754517 C95.37381728 126.83652384 97.72118792 132.83308216 100.1015625 138.81787109 C100.61686439 140.11665669 101.13212364 141.4154592 101.64733887 142.71427917 C102.63357156 145.1999925 103.62652121 147.68266648 104.62316895 150.16426086 C105.0652771 151.27754257 105.50738525 152.39082428 105.96289062 153.5378418 C106.55390564 155.01428413 106.55390564 155.01428413 107.15686035 156.52055359 C108 159 108 159 108 162 C108.66 162 109.32 162 110 162 C110.17269409 161.39382339 110.34538818 160.78764679 110.52331543 160.1631012 C112.32318079 153.98862078 114.4297026 148.01102868 116.78125 142.02734375 C117.1468251 141.08772797 117.51240021 140.14811218 117.88905334 139.18002319 C119.08914635 136.09778274 120.29458052 133.01766079 121.5 129.9375 C122.35188202 127.75235351 123.20335572 125.5670478 124.05444336 123.3815918 C125.82236531 118.84266415 127.59204052 114.30442565 129.36279297 109.76660156 C131.86708983 103.34540405 134.35973273 96.91974427 136.84765625 90.4921875 C137.43472855 88.97561554 137.43472855 88.97561554 138.03366089 87.42840576 C138.81916856 85.39913532 139.60466059 83.36985882 140.39013672 81.34057617 C147.98223372 61.73108447 155.62438327 42.1414526 163.30297852 22.56567383 C163.66408218 21.64454803 164.02518585 20.72342224 164.39723206 19.77438354 C165.06453509 18.07237172 165.73232806 16.37055185 166.40074158 14.66897583 C166.8501284 13.52270218 166.8501284 13.52270218 167.30859375 12.35327148 C167.56439209 11.70164536 167.82019043 11.05001923 168.08374023 10.37864685 C169.41288189 6.92814217 170.70166914 3.46221563 172 0 C187.51 0 203.02 0 219 0 C210.95823019 20.29589525 202.62132079 40.4606701 194.23779297 60.6171875 C191.0042676 68.39294173 187.78034724 76.17267671 184.55599976 83.95223999 C182.78509319 88.22482141 181.01364373 92.49717771 179.2421875 96.76953125 C178.71557777 98.03963799 178.71557777 98.03963799 178.17832947 99.33540344 C176.07416204 104.41013884 173.96933448 109.48459988 171.8639679 114.55883789 C170.11742233 118.76829946 168.3711622 122.9778794 166.625 127.1875 C166.28058868 128.01775696 165.93617737 128.84801392 165.58132935 129.70343018 C161.37511458 139.84434362 157.17685101 149.98850375 152.98828125 160.13671875 C152.56637512 161.15881943 152.14446899 162.1809201 151.70977783 163.23399353 C149.67023913 168.17534892 147.63154237 173.11704905 145.59423828 178.05932617 C144.84279112 179.88070391 144.09132705 181.70207467 143.33984375 183.5234375 C143.0195369 184.30132126 142.69923004 185.07920502 142.36921692 185.88066101 C138.6290887 194.94179997 134.80434266 203.96468619 131 213 C116.81 213 102.62 213 88 213 C84.98763222 206.97526443 82.10978014 201.14571472 79.609375 194.93359375 C79.30784012 194.19429123 79.00630524 193.45498871 78.69563293 192.69328308 C78.04817807 191.10482299 77.40245177 189.51565739 76.7583313 187.92584229 C74.99679174 183.57874586 73.22171614 179.23716828 71.44921875 174.89453125 C71.08211288 173.99402039 70.71500702 173.09350952 70.33677673 172.16571045 C66.4499672 162.63637423 62.50970115 153.12944487 58.5625 143.625 C57.85120885 141.91138863 57.13994596 140.19776553 56.42871094 138.48413086 C54.99981033 135.04170537 53.57055887 131.59942579 52.14111328 128.15722656 C48.23629312 118.75318288 44.33815254 109.34636763 40.43878174 99.94006348 C39.37719811 97.37929593 38.31556997 94.81854685 37.25390625 92.2578125 C36.90348267 91.41259033 36.55305908 90.56736816 36.1920166 89.6965332 C33.70150992 83.6901349 31.20854915 77.68475836 28.71484375 71.6796875 C24.83372699 62.33265682 20.95832761 52.98327095 17.08886719 43.63140869 C16.34622021 41.83669237 15.60337322 40.0420588 14.86035156 38.24749756 C12.57566394 32.72901138 10.29486152 27.20894829 8.01956177 21.68658447 C7.30241055 19.94743665 6.58406111 18.2087824 5.86447144 16.47064209 C4.87376073 14.07683861 3.88747436 11.68126045 2.90234375 9.28515625 C2.60638306 8.57268234 2.31042236 7.86020844 2.00549316 7.12614441 C0 2.22840198 0 2.22840198 0 0 Z " fill="#D71C41" transform="translate(448,171)"/>
<path d="M0 0 C58.08 0 116.16 0 176 0 C176 12.21 176 24.42 176 37 C153.56 37 131.12 37 108 37 C108 94.75 108 152.5 108 212 C94.8 212 81.6 212 68 212 C68 154.25 68 96.5 68 37 C45.56 37 23.12 37 0 37 C0 24.79 0 12.58 0 0 Z " fill="#D71C41" transform="translate(1081,171)"/>
<path d="M0 0 C13.2 0 26.4 0 40 0 C40 57.75 40 115.5 40 175 C76.3 175 112.6 175 150 175 C150 187.54 150 200.08 150 213 C100.5 213 51 213 0 213 C0 142.71 0 72.42 0 0 Z " fill="#D71C41" transform="translate(1791,171)"/>
<path d="M0 0 C13.2 0 26.4 0 40 0 C40 69.96 40 139.92 40 212 C26.8 212 13.6 212 0 212 C0 142.04 0 72.08 0 0 Z " fill="#D71C41" transform="translate(1280,171)"/>
<path d="M0 0 C23.43 0 46.86 0 71 0 C71 2.97 71 5.94 71 9 C50.21 9 29.42 9 8 9 C8 21.87 8 34.74 8 48 C27.8 48 47.6 48 68 48 C68 50.64 68 53.28 68 56 C48.2 56 28.4 56 8 56 C8 68.87 8 81.74 8 95 C29.45 95 50.9 95 73 95 C73 97.64 73 100.28 73 103 C48.91 103 24.82 103 0 103 C0 69.01 0 35.02 0 0 Z " fill="#000000" transform="translate(323,172)"/>
<path d="M0 0 C2.64 0 5.28 0 8 0 C8 15.84 8 31.68 8 48 C29.45 48 50.9 48 73 48 C73 32.16 73 16.32 73 0 C75.64 0 78.28 0 81 0 C81 33.66 81 67.32 81 102 C78.36 102 75.72 102 73 102 C73 86.82 73 71.64 73 56 C51.55 56 30.1 56 8 56 C8 71.18 8 86.36 8 102 C5.36 102 2.72 102 0 102 C0 68.34 0 34.68 0 0 Z " fill="#000000" transform="translate(220,173)"/>
<path d="M0 0 C27.06 0 54.12 0 82 0 C82 2.31 82 4.62 82 7 C69.79 7 57.58 7 45 7 C45 38.35 45 69.7 45 102 C42.36 102 39.72 102 37 102 C37 70.65 37 39.3 37 7 C24.79 7 12.58 7 0 7 C0 4.69 0 2.38 0 0 Z " fill="#000000" transform="translate(123,173)"/>
<path d="M0 0 C7.239375 -0.0928125 7.239375 -0.0928125 14.625 -0.1875 C16.89238037 -0.22846802 16.89238037 -0.22846802 19.20556641 -0.27026367 C21.01033447 -0.28150269 21.01033447 -0.28150269 22.8515625 -0.29296875 C24.07697754 -0.3086792 25.30239258 -0.32438965 26.56494141 -0.34057617 C32.28562556 0.2266132 36.31900801 2.63734283 40 7 C41.75626094 12.26878283 41.95431869 17.91785013 39.625 23 C38 25 38 25 36 27 C36.804375 27.78375 37.60875 28.5675 38.4375 29.375 C42.70846313 33.75013296 42.34445459 37.14109594 42.2734375 43.078125 C42 46 42 46 40.4375 49.0625 C35.07142547 53.3278413 30.29578585 54.37712596 23.53515625 54.29296875 C22.29386963 54.28547607 21.05258301 54.2779834 19.77368164 54.27026367 C17.44164673 54.22929565 17.44164673 54.22929565 15.0625 54.1875 C10.091875 54.125625 5.12125 54.06375 0 54 C0 36.18 0 18.36 0 0 Z M6 5 C6 11.27 6 17.54 6 24 C9.20884784 24.08127476 12.41561761 24.14063141 15.625 24.1875 C16.52863281 24.21263672 17.43226562 24.23777344 18.36328125 24.26367188 C23.68552299 24.32194459 27.41277813 24.02438287 32 21 C34.1349293 18.80359527 34.1349293 18.80359527 35 16 C34.17282288 11.49648011 32.52628357 8.8851411 29 6 C26.11734851 5.03911617 24.32337729 4.88329059 21.33203125 4.90234375 C20.43935547 4.90556641 19.54667969 4.90878906 18.62695312 4.91210938 C17.69818359 4.92048828 16.76941406 4.92886719 15.8125 4.9375 C14.40194336 4.94426758 14.40194336 4.94426758 12.96289062 4.95117188 C10.64189992 4.96295355 8.32094193 4.98088886 6 5 Z M6 29 C6 35.6 6 42.2 6 49 C19.98043913 50.10754288 19.98043913 50.10754288 33 46 C35.06117747 43.54887004 35.32803615 42.30382228 36 39 C34.84254453 35.23826974 33.7164127 33.53271713 30.5625 31.1875 C26.86161885 29.47245752 23.7392061 28.87329138 19.671875 28.90234375 C18.5905127 28.90609009 18.5905127 28.90609009 17.48730469 28.90991211 C16.13233887 28.92356812 16.13233887 28.92356812 14.75 28.9375 C10.41875 28.9684375 10.41875 28.9684375 6 29 Z " fill="#5C5857" transform="translate(1747,444)"/>
<path d="M0 0 C0.79470703 -0.020625 1.58941406 -0.04125 2.40820312 -0.0625 C8.28919342 -0.10141474 12.54644552 0.87305097 17.0625 4.9375 C18.76208046 8.43108205 18.38044508 11.39109842 18.1875 15.25 C16.2075 15.25 14.2275 15.25 12.1875 15.25 C11.754375 14.13625 11.32125 13.0225 10.875 11.875 C9.48838881 8.07487666 9.48838881 8.07487666 6.1875 6.25 C0.17099445 5.5227301 -5.85108272 5.43352517 -10.8125 9.25 C-12.51248826 12.50831083 -12.98529989 14.32120059 -12.3125 17.9375 C-10.27012651 21.08615914 -8.26214573 21.81672491 -4.8125 23.25 C-1.43800574 23.7466295 -1.43800574 23.7466295 2.1171875 23.76171875 C3.40625 23.79716797 4.6953125 23.83261719 6.0234375 23.86914062 C7.36978642 23.89223493 8.71614072 23.91501755 10.0625 23.9375 C11.43232371 23.97070883 12.80211692 24.00520175 14.171875 24.04101562 C17.5103341 24.12330159 20.84853685 24.19251928 24.1875 24.25 C24.1875 25.9 24.1875 27.55 24.1875 29.25 C22.5375 29.25 20.8875 29.25 19.1875 29.25 C19.27495575 31.64749384 19.38187075 34.04148221 19.5 36.4375 C19.53383789 37.44780273 19.53383789 37.44780273 19.56835938 38.47851562 C19.80225559 42.8374905 20.45668355 45.80566856 23.1875 49.25 C24.1775 49.58 25.1675 49.91 26.1875 50.25 C26.1875 51.9 26.1875 53.55 26.1875 55.25 C22.24022412 55.42942163 19.5894487 55.34350689 16.1875 53.25 C16.1875 52.59 16.1875 51.93 16.1875 51.25 C15.218125 51.91 14.24875 52.57 13.25 53.25 C6.02095949 56.8709863 -3.88031382 56.54904059 -11.5859375 54.51953125 C-15.78417735 52.6076934 -17.82460167 50.30717262 -19.8125 46.25 C-20.57213023 41.54662284 -20.92883754 36.48680966 -18.7578125 32.13671875 C-17.4375 30.5 -17.4375 30.5 -14.8125 28.25 C-14.1525 28.25 -13.4925 28.25 -12.8125 28.25 C-12.8125 27.59 -12.8125 26.93 -12.8125 26.25 C-13.410625 26.023125 -14.00875 25.79625 -14.625 25.5625 C-17.57988497 23.78956902 -18.45749863 22.43425322 -19.8125 19.25 C-20.38599739 14.97976942 -20.30962065 11.42739101 -18.625 7.4375 C-13.08234837 0.74809286 -8.15563298 0.05215433 0 0 Z M-10.6875 33.5 C-13.13355359 36.66548112 -13.8941027 38.25146786 -13.8125 42.25 C-12.15031749 45.57436502 -10.78656876 47.63772821 -7.625 49.625 C-2.27150512 50.81466553 2.38869848 50.91622279 7.5625 49 C10.29838398 47.17607734 11.5592176 46.08179548 13.1875 43.25 C13.55002397 39.74345032 13.55002397 39.74345032 13.375 36 C13.34792969 34.73671875 13.32085938 33.4734375 13.29296875 32.171875 C13.25816406 31.20765625 13.22335937 30.2434375 13.1875 29.25 C0.47820222 28.47501118 0.47820222 28.47501118 -10.6875 33.5 Z " fill="#5C5857" transform="translate(1689.8125,443.75)"/>
<path d="M0 0 C4.41375 -0.103125 8.8275 -0.20625 13.375 -0.3125 C15.43113525 -0.38078003 15.43113525 -0.38078003 17.52880859 -0.45043945 C26.29308922 -0.54886457 33.29635891 0.66452759 39.90576172 6.7565918 C45.42063497 12.58351159 47.56093313 18.9293511 47.4375 26.875 C47.42775146 27.57753906 47.41800293 28.28007812 47.40795898 29.00390625 C47.113277 37.65057489 44.86058064 42.53840938 38.625 48.4375 C33.3132472 53.08293752 28.26589277 54.25932012 21.2890625 54.1953125 C19.60611084 54.18781982 19.60611084 54.18781982 17.88916016 54.18017578 C15.77840088 54.15286377 15.77840088 54.15286377 13.625 54.125 C9.12875 54.08375 4.6325 54.0425 0 54 C0 36.18 0 18.36 0 0 Z M6 5 C6 19.52 6 34.04 6 49 C22.5310316 49.4875714 22.5310316 49.4875714 35.5625 41.6640625 C39.52343729 37.07884705 41.16688175 30.9966177 41 25 C39.83746227 18.46495778 36.94888011 13.40965588 32 9 C23.194852 3.7169112 17.16623477 5 6 5 Z " fill="#5C5857" transform="translate(1079,444)"/>
<path d="M0 0 C0.82435547 -0.01160156 1.64871094 -0.02320313 2.49804688 -0.03515625 C9.0993779 -0.00349519 13.24408864 1.46768577 18.3125 5.875 C20.4375 8.375 20.4375 8.375 20.4375 11.375 C18.1275 11.705 15.8175 12.035 13.4375 12.375 C12.9425 10.89 12.9425 10.89 12.4375 9.375 C6.7956653 6.43301324 0.53725589 5.39379683 -5.66796875 6.87890625 C-9.19483358 8.00313457 -11.18653499 8.95480381 -13.6875 11.75 C-14.77857315 14.34088319 -14.77857315 14.34088319 -14.125 17 C-10.01143689 23.25261593 -0.73466081 23.9013737 6.09375 25.39257812 C11.89711788 26.74290996 17.16224105 28.16865525 20.79296875 33.28515625 C22.38394692 38.44378244 22.2326679 44.29872826 20.3125 49.3125 C16.85374319 53.11713249 12.73242003 56.04504857 7.51147461 56.56787109 C-11.99697966 57.29162488 -11.99697966 57.29162488 -19.5625 51.375 C-22.25 48.8125 -22.25 48.8125 -23.5625 46.375 C-23.3125 44.0625 -23.3125 44.0625 -22.5625 42.375 C-19.875 41.5 -19.875 41.5 -16.5625 41.375 C-15.31972107 42.81400719 -14.08538406 44.26573671 -12.96875 45.8046875 C-9.64734753 49.51358693 -4.81082408 50.24125099 -0.0625 50.75 C4.68902751 50.24090777 9.54812312 49.71505393 12.71484375 45.79296875 C14.25335084 42.76217581 14.5921331 40.86098973 13.5625 37.625 C8.52455086 32.29070091 0.66787624 31.38103658 -6.24609375 30.00195312 C-12.455092 28.66022565 -17.89350375 26.87849438 -21.5625 21.375 C-22.1978232 16.74048442 -22.58248139 11.7246 -20.6875 7.359375 C-15.41807198 0.49525166 -7.95025508 -0.11241523 0 0 Z " fill="#5C5857" transform="translate(1302.5625,442.625)"/>
<path d="M0 0 C2.64 0 5.28 0 8 0 C14.18096441 13.26864391 20.30856171 26.55965544 26.25 39.9375 C26.72735596 41.00218506 27.20471191 42.06687012 27.6965332 43.16381836 C28.1318335 44.15003174 28.56713379 45.13624512 29.015625 46.15234375 C29.40008789 47.01851318 29.78455078 47.88468262 30.18066406 48.77709961 C31 51 31 51 31 54 C28.69 54 26.38 54 24 54 C22.02 50.04 20.04 46.08 18 42 C8.76 42 -0.48 42 -10 42 C-11.98 45.96 -13.96 49.92 -16 54 C-18.31 54 -20.62 54 -23 54 C-20.94241209 47.39019152 -18.4101236 41.10144177 -15.5859375 34.78515625 C-15.17082916 33.84820419 -14.75572083 32.91125214 -14.32803345 31.94590759 C-13.01420483 28.9830452 -11.69464405 26.02277607 -10.375 23.0625 C-9.48140322 21.04899123 -8.58817056 19.03532083 -7.6953125 17.02148438 C-6.06905079 13.35719213 -4.44190842 9.69330166 -2.81005859 6.03149414 C-2.48379486 5.29919083 -2.15753113 4.56688751 -1.82138062 3.81239319 C-1.24001786 2.52960433 -0.629846 1.259692 0 0 Z M3 10 C1.16370918 14.1445297 -0.66853742 18.29083471 -2.5 22.4375 C-3.02464844 23.62150391 -3.54929687 24.80550781 -4.08984375 26.02539062 C-4.58613281 27.15009766 -5.08242187 28.27480469 -5.59375 29.43359375 C-6.05458984 30.47572021 -6.51542969 31.51784668 -6.99023438 32.59155273 C-8.06444205 34.71844429 -8.06444205 34.71844429 -8 36 C-0.08 36 7.84 36 16 36 C10.66442758 22.929422 10.66442758 22.929422 5 10 C4.34 10 3.68 10 3 10 Z " fill="#5C5857" transform="translate(2109,444)"/>
<path d="M0 0 C0.33 -0.99 0.66 -1.98 1 -3 C2.98 -3 4.96 -3 7 -3 C7 9.54 7 22.08 7 35 C5.02 35 3.04 35 1 35 C1 34.01 1 33.02 1 32 C0.13375 32.66 -0.7325 33.32 -1.625 34 C-7.19285827 37.19952592 -13.79682582 36.79053081 -20 36 C-23.92115604 34.40970064 -26.6433024 32.78073883 -29.3125 29.5 C-29.80363281 28.9121875 -30.29476562 28.324375 -30.80078125 27.71875 C-34.47383574 22.45443737 -33.59322065 15.08725282 -33 9 C-30.97008309 3.2689846 -27.35238553 -0.15298642 -22 -3 C-13.84391753 -5.49917227 -7.20638938 -4.27045297 0 0 Z M-23.875 6.625 C-26.52732868 10.83752202 -27.41114264 14.04111637 -27 19 C-25.77851611 23.5266756 -23.71553496 26.90588879 -19.8125 29.5625 C-15.51263895 31.64307793 -11.50907363 31.30525816 -7 30 C-2.2780375 27.33106467 -0.52075709 24.15367682 1 19 C1.38361363 13.95949537 0.51738375 10.11010679 -2.5625 6.0625 C-5.38763402 3.16302035 -7.99098353 1.70932535 -11.984375 1.0234375 C-17.0701394 0.9643007 -20.25813862 3.32264831 -23.875 6.625 Z " fill="#5C5857" transform="translate(2221,463)"/>
<path d="M0 0 C0.33 -0.99 0.66 -1.98 1 -3 C2.98 -3 4.96 -3 7 -3 C7 9.54 7 22.08 7 35 C5.02 35 3.04 35 1 35 C1 34.01 1 33.02 1 32 C0.13375 32.66 -0.7325 33.32 -1.625 34 C-7.19285827 37.19952592 -13.79682582 36.79053081 -20 36 C-23.92115604 34.40970064 -26.6433024 32.78073883 -29.3125 29.5 C-29.80363281 28.9121875 -30.29476563 28.324375 -30.80078125 27.71875 C-34.47383574 22.45443737 -33.59322065 15.08725282 -33 9 C-30.97008309 3.2689846 -27.35238553 -0.15298642 -22 -3 C-13.84391753 -5.49917227 -7.20638938 -4.27045297 0 0 Z M-23.875 6.625 C-26.52732868 10.83752202 -27.41114264 14.04111637 -27 19 C-25.77851611 23.5266756 -23.71553496 26.90588879 -19.8125 29.5625 C-15.51263895 31.64307793 -11.50907363 31.30525816 -7 30 C-2.2780375 27.33106467 -0.52075709 24.15367682 1 19 C1.38361363 13.95949537 0.51738375 10.11010679 -2.5625 6.0625 C-5.38763402 3.16302035 -7.99098353 1.70932535 -11.984375 1.0234375 C-17.0701394 0.9643007 -20.25813862 3.32264831 -23.875 6.625 Z " fill="#5C5857" transform="translate(1243,463)"/>
<path d="M0 0 C0.33 -0.99 0.66 -1.98 1 -3 C2.98 -3 4.96 -3 7 -3 C7 9.54 7 22.08 7 35 C5.02 35 3.04 35 1 35 C1 34.01 1 33.02 1 32 C0.13375 32.66 -0.7325 33.32 -1.625 34 C-7.19285827 37.19952592 -13.79682582 36.79053081 -20 36 C-23.92115604 34.40970064 -26.6433024 32.78073883 -29.3125 29.5 C-29.80363281 28.9121875 -30.29476563 28.324375 -30.80078125 27.71875 C-34.47383574 22.45443737 -33.59322065 15.08725282 -33 9 C-30.97008309 3.2689846 -27.35238553 -0.15298642 -22 -3 C-13.84391753 -5.49917227 -7.20638938 -4.27045297 0 0 Z M-23.875 6.625 C-26.52732868 10.83752202 -27.41114264 14.04111637 -27 19 C-25.77851611 23.5266756 -23.71553496 26.90588879 -19.8125 29.5625 C-15.51263895 31.64307793 -11.50907363 31.30525816 -7 30 C-2.2780375 27.33106467 -0.52075709 24.15367682 1 19 C1.38361363 13.95949537 0.51738375 10.11010679 -2.5625 6.0625 C-5.38763402 3.16302035 -7.99098353 1.70932535 -11.984375 1.0234375 C-17.0701394 0.9643007 -20.25813862 3.32264831 -23.875 6.625 Z " fill="#5C5857" transform="translate(1166,463)"/>
<path d="M0 0 C2.51994129 2.3506915 4.45136316 4.90272632 6 8 C6 11.96 6 15.92 6 20 C-4.56 20 -15.12 20 -26 20 C-22.93009091 27.59743617 -22.93009091 27.59743617 -19.3125 30.0625 C-13.32854031 31.7560735 -7.57520559 30.69768012 -2 28 C-2 27.34 -2 26.68 -2 26 C-0.35 26.33 1.3 26.66 3 27 C3.495 28.98 3.495 28.98 4 31 C-1.5529619 35.75968163 -5.60545717 37.28861712 -12.9375 37.3125 C-14.12214844 37.32925781 -15.30679687 37.34601563 -16.52734375 37.36328125 C-22.00501272 36.79025176 -25.84447761 34.76258278 -29.3125 30.5 C-29.80363281 29.9121875 -30.29476563 29.324375 -30.80078125 28.71875 C-34.47383574 23.45443737 -33.59322065 16.08725282 -33 10 C-30.97008309 4.2689846 -27.35238553 0.84701358 -22 -2 C-14.83775133 -4.20947216 -6.49968956 -3.91425749 0 0 Z M-21 5 C-24.25466721 8.01918741 -25.90391236 10.61564944 -27 15 C-18.09 15 -9.18 15 0 15 C-1.0363946 8.78163239 -1.24944692 7.63872151 -6 4 C-11.66193175 1.38862686 -15.56656436 1.71943509 -21 5 Z " fill="#5C5857" transform="translate(1975,462)"/>
<path d="M0 0 C2.51994129 2.3506915 4.45136316 4.90272632 6 8 C6 11.96 6 15.92 6 20 C-4.56 20 -15.12 20 -26 20 C-22.93009091 27.59743617 -22.93009091 27.59743617 -19.3125 30.0625 C-13.32854031 31.7560735 -7.57520559 30.69768012 -2 28 C-2 27.34 -2 26.68 -2 26 C-0.35 26.33 1.3 26.66 3 27 C3.495 28.98 3.495 28.98 4 31 C-1.5529619 35.75968163 -5.60545717 37.28861712 -12.9375 37.3125 C-14.12214844 37.32925781 -15.30679687 37.34601563 -16.52734375 37.36328125 C-22.00501272 36.79025176 -25.84447761 34.76258278 -29.3125 30.5 C-29.80363281 29.9121875 -30.29476563 29.324375 -30.80078125 28.71875 C-34.47383574 23.45443737 -33.59322065 16.08725282 -33 10 C-30.97008309 4.2689846 -27.35238553 0.84701358 -22 -2 C-14.83775133 -4.20947216 -6.49968956 -3.91425749 0 0 Z M-21 5 C-24.25466721 8.01918741 -25.90391236 10.61564944 -27 15 C-18.09 15 -9.18 15 0 15 C-1.0363946 8.78163239 -1.24944692 7.63872151 -6 4 C-11.66193175 1.38862686 -15.56656436 1.71943509 -21 5 Z " fill="#5C5857" transform="translate(1591,462)"/>
<path d="M0 0 C2.51994129 2.3506915 4.45136316 4.90272632 6 8 C6 11.96 6 15.92 6 20 C-4.56 20 -15.12 20 -26 20 C-22.93009091 27.59743617 -22.93009091 27.59743617 -19.3125 30.0625 C-13.32854031 31.7560735 -7.57520559 30.69768012 -2 28 C-2 27.34 -2 26.68 -2 26 C-0.35 26.33 1.3 26.66 3 27 C3.495 28.98 3.495 28.98 4 31 C-1.5529619 35.75968163 -5.60545717 37.28861712 -12.9375 37.3125 C-14.12214844 37.32925781 -15.30679687 37.34601563 -16.52734375 37.36328125 C-22.00501272 36.79025176 -25.84447761 34.76258278 -29.3125 30.5 C-29.80363281 29.9121875 -30.29476563 29.324375 -30.80078125 28.71875 C-34.47383574 23.45443737 -33.59322065 16.08725282 -33 10 C-30.97008309 4.2689846 -27.35238553 0.84701358 -22 -2 C-14.83775133 -4.20947216 -6.49968956 -3.91425749 0 0 Z M-21 5 C-24.25466721 8.01918741 -25.90391236 10.61564944 -27 15 C-18.09 15 -9.18 15 0 15 C-1.0363946 8.78163239 -1.24944692 7.63872151 -6 4 C-11.66193175 1.38862686 -15.56656436 1.71943509 -21 5 Z " fill="#5C5857" transform="translate(1365,462)"/>
<path d="M0 0 C2.31 0 4.62 0 7 0 C10.63 8.91 14.26 17.82 18 27 C21.57774746 18.48952578 21.57774746 18.48952578 25.15014648 9.97680664 C25.59430908 8.92356201 26.03847168 7.87031738 26.49609375 6.78515625 C26.95169678 5.70113525 27.4072998 4.61711426 27.87670898 3.50024414 C29 1 29 1 30 0 C32.33297433 -0.04092937 34.66705225 -0.04241723 37 0 C36.31727325 4.94128881 34.32710294 9.18412662 32.32421875 13.703125 C31.95778763 14.54035095 31.59135651 15.3775769 31.21382141 16.24017334 C30.04302615 18.91218226 28.86535428 21.5810964 27.6875 24.25 C26.90645038 26.02975021 26.1258468 27.80969624 25.34570312 29.58984375 C21.91856821 37.40278381 18.46915614 45.2056293 15 53 C12.69 53 10.38 53 8 53 C8.5591751 48.66639297 10.24521556 45.2935567 12.2578125 41.4765625 C13.96148133 35.79168862 11.51974575 30.30301245 9.27734375 25.078125 C8.87993736 24.13812653 8.87993736 24.13812653 8.47450256 23.17913818 C7.63661571 21.19933808 6.78804747 19.22439034 5.9375 17.25 C5.0844521 15.26091849 4.233921 13.27089634 3.38978577 11.27801514 C2.62772485 9.48000199 1.85693382 7.68569639 1.08569336 5.89160156 C0 3 0 3 0 0 Z " fill="#5C5857" transform="translate(2251,460)"/>
<path d="M0 0 C1.5 2.1875 1.5 2.1875 2 4 C1.34 4.66 0.68 5.32 0 6 C-2.44478639 5.70366226 -4.72652176 5.08209478 -7.08203125 4.375 C-11.05418366 3.29230088 -14.05284048 2.60871079 -18 4.0625 C-21.22837153 5.66928408 -21.22837153 5.66928408 -21.6875 8.62109375 C-21.8421875 9.79865234 -21.8421875 9.79865234 -22 11 C-20.9378125 11.24234375 -19.875625 11.4846875 -18.78125 11.734375 C-4.32698288 15.12633701 -4.32698288 15.12633701 2 19 C3.85855282 22.71710563 3.57908439 26.95277281 3 31 C0.47323961 34.34625024 -1.03933542 35.67977847 -5 37 C-21.02545137 38.24781045 -21.02545137 38.24781045 -27.71484375 33.484375 C-29.29105484 31.66382724 -29.7750732 30.39283825 -30 28 C-29.34 27.34 -28.68 26.68 -28 26 C-24.10420892 26.30756245 -21.99707974 27.60233621 -19 30 C-15.42365687 31.19211438 -12.75935317 31.25926574 -9 31 C-6.12853006 29.63002843 -6.12853006 29.63002843 -4 28 C-4.495 25.525 -4.495 25.525 -5 23 C-9.90279415 21.2931013 -14.7566027 19.81422316 -19.8125 18.625 C-23.26996541 17.68557662 -24.89238985 17.09009222 -27.6875 14.75 C-29.38249651 11.19857874 -29.48705678 8.89645427 -29 5 C-27.59152491 1.35453507 -26.35762171 0.21606312 -23 -1.8125 C-15.3436981 -4.64516984 -7.14080226 -3.63531751 0 0 Z " fill="#5C5857" transform="translate(2410,462)"/>
<path d="M0 0 C1.5 2.1875 1.5 2.1875 2 4 C1.34 4.66 0.68 5.32 0 6 C-2.44478639 5.70366226 -4.72652176 5.08209478 -7.08203125 4.375 C-11.05418366 3.29230088 -14.05284048 2.60871079 -18 4.0625 C-21.22837153 5.66928408 -21.22837153 5.66928408 -21.6875 8.62109375 C-21.8421875 9.79865234 -21.8421875 9.79865234 -22 11 C-20.9378125 11.24234375 -19.875625 11.4846875 -18.78125 11.734375 C-4.32698288 15.12633701 -4.32698288 15.12633701 2 19 C3.85855282 22.71710563 3.57908439 26.95277281 3 31 C0.47323961 34.34625024 -1.03933542 35.67977847 -5 37 C-21.02545137 38.24781045 -21.02545137 38.24781045 -27.71484375 33.484375 C-29.29105484 31.66382724 -29.7750732 30.39283825 -30 28 C-29.34 27.34 -28.68 26.68 -28 26 C-24.10420892 26.30756245 -21.99707974 27.60233621 -19 30 C-15.42365687 31.19211438 -12.75935317 31.25926574 -9 31 C-6.12853006 29.63002843 -6.12853006 29.63002843 -4 28 C-4.495 25.525 -4.495 25.525 -5 23 C-9.90279415 21.2931013 -14.7566027 19.81422316 -19.8125 18.625 C-23.26996541 17.68557662 -24.89238985 17.09009222 -27.6875 14.75 C-29.38249651 11.19857874 -29.48705678 8.89645427 -29 5 C-27.59152491 1.35453507 -26.35762171 0.21606312 -23 -1.8125 C-15.3436981 -4.64516984 -7.14080226 -3.63531751 0 0 Z " fill="#5C5857" transform="translate(2057,462)"/>
<path d="M0 0 C1.5 2.1875 1.5 2.1875 2 4 C1.34 4.66 0.68 5.32 0 6 C-2.44478639 5.70366226 -4.72652176 5.08209478 -7.08203125 4.375 C-11.05418366 3.29230088 -14.05284048 2.60871079 -18 4.0625 C-21.22837153 5.66928408 -21.22837153 5.66928408 -21.6875 8.62109375 C-21.8421875 9.79865234 -21.8421875 9.79865234 -22 11 C-20.9378125 11.24234375 -19.875625 11.4846875 -18.78125 11.734375 C-4.32698288 15.12633701 -4.32698288 15.12633701 2 19 C3.85855282 22.71710563 3.57908439 26.95277281 3 31 C0.47323961 34.34625024 -1.03933542 35.67977847 -5 37 C-21.02545137 38.24781045 -21.02545137 38.24781045 -27.71484375 33.484375 C-29.29105484 31.66382724 -29.7750732 30.39283825 -30 28 C-29.34 27.34 -28.68 26.68 -28 26 C-24.10420892 26.30756245 -21.99707974 27.60233621 -19 30 C-15.42365687 31.19211438 -12.75935317 31.25926574 -9 31 C-6.12853006 29.63002843 -6.12853006 29.63002843 -4 28 C-4.495 25.525 -4.495 25.525 -5 23 C-9.90279415 21.2931013 -14.7566027 19.81422316 -19.8125 18.625 C-23.26996541 17.68557662 -24.89238985 17.09009222 -27.6875 14.75 C-29.38249651 11.19857874 -29.48705678 8.89645427 -29 5 C-27.59152491 1.35453507 -26.35762171 0.21606312 -23 -1.8125 C-15.3436981 -4.64516984 -7.14080226 -3.63531751 0 0 Z " fill="#5C5857" transform="translate(2018,462)"/>
<path d="M0 0 C1.5 2.1875 1.5 2.1875 2 4 C1.34 4.66 0.68 5.32 0 6 C-2.44478639 5.70366226 -4.72652176 5.08209478 -7.08203125 4.375 C-11.05418366 3.29230088 -14.05284048 2.60871079 -18 4.0625 C-21.22837153 5.66928408 -21.22837153 5.66928408 -21.6875 8.62109375 C-21.8421875 9.79865234 -21.8421875 9.79865234 -22 11 C-20.9378125 11.24234375 -19.875625 11.4846875 -18.78125 11.734375 C-4.32698288 15.12633701 -4.32698288 15.12633701 2 19 C3.85855282 22.71710563 3.57908439 26.95277281 3 31 C0.47323961 34.34625024 -1.03933542 35.67977847 -5 37 C-21.02545137 38.24781045 -21.02545137 38.24781045 -27.71484375 33.484375 C-29.29105484 31.66382724 -29.7750732 30.39283825 -30 28 C-29.34 27.34 -28.68 26.68 -28 26 C-24.10420892 26.30756245 -21.99707974 27.60233621 -19 30 C-15.42365687 31.19211438 -12.75935317 31.25926574 -9 31 C-6.12853006 29.63002843 -6.12853006 29.63002843 -4 28 C-4.495 25.525 -4.495 25.525 -5 23 C-9.90279415 21.2931013 -14.7566027 19.81422316 -19.8125 18.625 C-23.26996541 17.68557662 -24.89238985 17.09009222 -27.6875 14.75 C-29.38249651 11.19857874 -29.48705678 8.89645427 -29 5 C-27.59152491 1.35453507 -26.35762171 0.21606312 -23 -1.8125 C-15.3436981 -4.64516984 -7.14080226 -3.63531751 0 0 Z " fill="#5C5857" transform="translate(1871,462)"/>
<path d="M0 0 C1.5 2.1875 1.5 2.1875 2 4 C1.34 4.66 0.68 5.32 0 6 C-2.44478639 5.70366226 -4.72652176 5.08209478 -7.08203125 4.375 C-11.05418366 3.29230088 -14.05284048 2.60871079 -18 4.0625 C-21.22837153 5.66928408 -21.22837153 5.66928408 -21.6875 8.62109375 C-21.8421875 9.79865234 -21.8421875 9.79865234 -22 11 C-20.9378125 11.24234375 -19.875625 11.4846875 -18.78125 11.734375 C-4.32698288 15.12633701 -4.32698288 15.12633701 2 19 C3.85855282 22.71710563 3.57908439 26.95277281 3 31 C0.47323961 34.34625024 -1.03933542 35.67977847 -5 37 C-21.02545137 38.24781045 -21.02545137 38.24781045 -27.71484375 33.484375 C-29.29105484 31.66382724 -29.7750732 30.39283825 -30 28 C-29.34 27.34 -28.68 26.68 -28 26 C-24.10420892 26.30756245 -21.99707974 27.60233621 -19 30 C-15.42365687 31.19211438 -12.75935317 31.25926574 -9 31 C-6.12853006 29.63002843 -6.12853006 29.63002843 -4 28 C-4.495 25.525 -4.495 25.525 -5 23 C-9.90279415 21.2931013 -14.7566027 19.81422316 -19.8125 18.625 C-23.26996541 17.68557662 -24.89238985 17.09009222 -27.6875 14.75 C-29.38249651 11.19857874 -29.48705678 8.89645427 -29 5 C-27.59152491 1.35453507 -26.35762171 0.21606312 -23 -1.8125 C-15.3436981 -4.64516984 -7.14080226 -3.63531751 0 0 Z " fill="#5C5857" transform="translate(1634,462)"/>
<path d="M0 0 C1.98 0 3.96 0 6 0 C6.01458252 0.72590332 6.02916504 1.45180664 6.04418945 2.19970703 C6.11894859 5.50865732 6.2155179 8.81662952 6.3125 12.125 C6.33505859 13.26710938 6.35761719 14.40921875 6.38085938 15.5859375 C6.57009697 23.73148197 6.57009697 23.73148197 10 31 C13.60976736 33.14634816 16.85465149 33.43180714 21 33 C24.89042651 31.55239944 25.82084635 30.38102923 27.6015625 26.59375 C29.47745786 21.31283299 29.55989855 16.0561315 29.6875 10.5 C29.72166016 9.48679687 29.75582031 8.47359375 29.79101562 7.4296875 C29.87278526 4.95323583 29.9421625 2.47710651 30 0 C31.98 0 33.96 0 36 0 C36 12.54 36 25.08 36 38 C33 38 30 38 27 38 C25.515 38.495 25.515 38.495 24 39 C10.31243421 39.95027159 10.31243421 39.95027159 5 36 C0.72360322 31.26129006 -0.12515443 28.78551934 -0.09765625 22.4609375 C-0.09443359 21.15898437 -0.09121094 19.85703125 -0.08789062 18.515625 C-0.07953466 17.13541601 -0.07106971 15.75520768 -0.0625 14.375 C-0.05748501 12.98698074 -0.0529221 11.59895978 -0.04882812 10.2109375 C-0.03700976 6.80724868 -0.02053434 3.40364561 0 0 Z " fill="#5C5857" transform="translate(1798,460)"/>
<path d="M0 0 C1.98 0 3.96 0 6 0 C6.01458252 0.72590332 6.02916504 1.45180664 6.04418945 2.19970703 C6.11894859 5.50865732 6.2155179 8.81662952 6.3125 12.125 C6.33505859 13.26710938 6.35761719 14.40921875 6.38085938 15.5859375 C6.57009697 23.73148197 6.57009697 23.73148197 10 31 C13.60976736 33.14634816 16.85465149 33.43180714 21 33 C24.89042651 31.55239944 25.82084635 30.38102923 27.6015625 26.59375 C29.47745786 21.31283299 29.55989855 16.0561315 29.6875 10.5 C29.72166016 9.48679687 29.75582031 8.47359375 29.79101562 7.4296875 C29.87278526 4.95323583 29.9421625 2.47710651 30 0 C31.98 0 33.96 0 36 0 C36 12.54 36 25.08 36 38 C33 38 30 38 27 38 C25.515 38.495 25.515 38.495 24 39 C10.31243421 39.95027159 10.31243421 39.95027159 5 36 C0.72360322 31.26129006 -0.12515443 28.78551934 -0.09765625 22.4609375 C-0.09443359 21.15898437 -0.09121094 19.85703125 -0.08789062 18.515625 C-0.07953466 17.13541601 -0.07106971 15.75520768 -0.0625 14.375 C-0.05748501 12.98698074 -0.0529221 11.59895978 -0.04882812 10.2109375 C-0.03700976 6.80724868 -0.02053434 3.40364561 0 0 Z " fill="#5C5857" transform="translate(1420,460)"/>
<path d="M0 0 C4.97427424 2.78559357 7.35338855 5.34405694 9.125 10.75 C9.35205078 13.79614258 9.35205078 13.79614258 9.3203125 17.14453125 C9.31386719 18.34658203 9.30742187 19.54863281 9.30078125 20.78710938 C9.28402344 22.03298828 9.26726563 23.27886719 9.25 24.5625 C9.24097656 25.82771484 9.23195313 27.09292969 9.22265625 28.39648438 C9.19912394 31.51451564 9.16624545 34.63216097 9.125 37.75 C7.145 37.75 5.165 37.75 3.125 37.75 C3.11041748 37.08991943 3.09583496 36.42983887 3.08081055 35.74975586 C3.00585388 32.72844603 2.90935194 29.70818405 2.8125 26.6875 C2.78994141 25.64916016 2.76738281 24.61082031 2.74414062 23.54101562 C2.5362324 17.5872802 2.12372877 12.95720431 -0.875 7.75 C-4.8544887 5.22455525 -6.88894307 4.59958454 -11.5625 5.3125 C-14.89277995 6.75771583 -16.64514652 7.91980135 -18.875 10.75 C-19.89087978 13.79763934 -20.07304406 16.09718967 -20.19140625 19.29296875 C-20.23330078 20.36611328 -20.27519531 21.43925781 -20.31835938 22.54492188 C-20.37733398 24.22424805 -20.37733398 24.22424805 -20.4375 25.9375 C-20.48068359 27.06865234 -20.52386719 28.19980469 -20.56835938 29.36523438 C-20.67449099 32.16003354 -20.77654385 34.95492162 -20.875 37.75 C-22.855 37.75 -24.835 37.75 -26.875 37.75 C-26.875 25.21 -26.875 12.67 -26.875 -0.25 C-24.895 -0.25 -22.915 -0.25 -20.875 -0.25 C-20.875 0.41 -20.875 1.07 -20.875 1.75 C-19.451875 1.0075 -19.451875 1.0075 -18 0.25 C-12.22391678 -2.20541999 -5.85895832 -2.28826269 0 0 Z " fill="#5C5857" transform="translate(2171.875,460.25)"/>
<path d="M0 0 C4.97427424 2.78559357 7.35338855 5.34405694 9.125 10.75 C9.35205078 13.79614258 9.35205078 13.79614258 9.3203125 17.14453125 C9.31386719 18.34658203 9.30742188 19.54863281 9.30078125 20.78710938 C9.28402344 22.03298828 9.26726562 23.27886719 9.25 24.5625 C9.24097656 25.82771484 9.23195313 27.09292969 9.22265625 28.39648438 C9.19912394 31.51451564 9.16624545 34.63216097 9.125 37.75 C7.145 37.75 5.165 37.75 3.125 37.75 C3.11041748 37.08991943 3.09583496 36.42983887 3.08081055 35.74975586 C3.00585388 32.72844603 2.90935194 29.70818405 2.8125 26.6875 C2.78994141 25.64916016 2.76738281 24.61082031 2.74414062 23.54101562 C2.5362324 17.5872802 2.12372877 12.95720431 -0.875 7.75 C-4.8544887 5.22455525 -6.88894307 4.59958454 -11.5625 5.3125 C-14.89277995 6.75771583 -16.64514652 7.91980135 -18.875 10.75 C-19.89087978 13.79763934 -20.07304406 16.09718967 -20.19140625 19.29296875 C-20.23330078 20.36611328 -20.27519531 21.43925781 -20.31835938 22.54492188 C-20.37733398 24.22424805 -20.37733398 24.22424805 -20.4375 25.9375 C-20.48068359 27.06865234 -20.52386719 28.19980469 -20.56835938 29.36523438 C-20.67449099 32.16003354 -20.77654385 34.95492162 -20.875 37.75 C-22.855 37.75 -24.835 37.75 -26.875 37.75 C-26.875 25.21 -26.875 12.67 -26.875 -0.25 C-24.895 -0.25 -22.915 -0.25 -20.875 -0.25 C-20.875 0.41 -20.875 1.07 -20.875 1.75 C-19.451875 1.0075 -19.451875 1.0075 -18 0.25 C-12.22391678 -2.20541999 -5.85895832 -2.28826269 0 0 Z " fill="#5C5857" transform="translate(1925.875,460.25)"/>
<path d="M0 0 C1.92326054 1.52729514 2.6512574 3.02249261 3.59375 5.265625 C2.93375 5.925625 2.27375 6.585625 1.59375 7.265625 C-1.64709656 6.98783815 -3.80134393 6.06435073 -6.71875 4.578125 C-11.30195379 2.94681518 -14.03990777 3.22433713 -18.40625 5.265625 C-21.54472192 7.86988894 -23.11654542 9.39651125 -24.40625 13.265625 C-24.79398716 17.99601835 -24.88742872 20.32108899 -22.71875 24.578125 C-19.35579371 28.48642555 -17.14152651 30.07632211 -11.96875 30.640625 C-8.36114039 30.47166619 -8.36114039 30.47166619 -5.28125 28.703125 C-2.03078606 27.07789303 -0.79217697 27.17017804 2.59375 28.265625 C2.59375 29.585625 2.59375 30.905625 2.59375 32.265625 C-3.20232298 36.78938928 -8.55878723 36.92550532 -15.796875 36.7109375 C-22.45822611 35.88908249 -25.65839426 33.3193555 -29.90625 28.328125 C-32.60538689 22.88186657 -32.1554549 16.14452112 -31.40625 10.265625 C-28.91766732 4.25994135 -25.56849706 0.77487928 -19.65625 -2.046875 C-12.45895059 -3.56938064 -6.58852626 -3.40227175 0 0 Z " fill="#5C5857" transform="translate(2371.40625,461.734375)"/>
<path d="M0 0 C1.92326054 1.52729514 2.6512574 3.02249261 3.59375 5.265625 C2.93375 5.925625 2.27375 6.585625 1.59375 7.265625 C-1.64709656 6.98783815 -3.80134393 6.06435073 -6.71875 4.578125 C-11.30195379 2.94681518 -14.03990777 3.22433713 -18.40625 5.265625 C-21.54472192 7.86988894 -23.11654542 9.39651125 -24.40625 13.265625 C-24.79398716 17.99601835 -24.88742872 20.32108899 -22.71875 24.578125 C-19.35579371 28.48642555 -17.14152651 30.07632211 -11.96875 30.640625 C-8.36114039 30.47166619 -8.36114039 30.47166619 -5.28125 28.703125 C-2.03078606 27.07789303 -0.79217697 27.17017804 2.59375 28.265625 C2.59375 29.585625 2.59375 30.905625 2.59375 32.265625 C-3.20232298 36.78938928 -8.55878723 36.92550532 -15.796875 36.7109375 C-22.45822611 35.88908249 -25.65839426 33.3193555 -29.90625 28.328125 C-32.60538689 22.88186657 -32.1554549 16.14452112 -31.40625 10.265625 C-28.91766732 4.25994135 -25.56849706 0.77487928 -19.65625 -2.046875 C-12.45895059 -3.56938064 -6.58852626 -3.40227175 0 0 Z " fill="#5C5857" transform="translate(1409.40625,461.734375)"/>
<path d="M0 0 C1.98 0 3.96 0 6 0 C6 3.63 6 7.26 6 11 C9.96 11 13.92 11 18 11 C18 12.32 18 13.64 18 15 C14.04 15 10.08 15 6 15 C6.1134127 19.45890972 6.24017333 23.91673148 6.375 28.375 C6.4059375 29.64601563 6.436875 30.91703125 6.46875 32.2265625 C6.50742188 33.43828125 6.54609375 34.65 6.5859375 35.8984375 C6.6173584 37.01911621 6.6487793 38.13979492 6.68115234 39.29443359 C6.73411203 42.14710412 6.73411203 42.14710412 9 44 C11.44012949 44.24287489 11.44012949 44.24287489 14.125 44.125 C15.03507812 44.10695313 15.94515625 44.08890625 16.8828125 44.0703125 C17.58148437 44.04710937 18.28015625 44.02390625 19 44 C19.33 45.65 19.66 47.3 20 49 C16.86920913 50.04359696 14.41483851 50.26834688 11.125 50.375 C9.58199219 50.44847656 9.58199219 50.44847656 8.0078125 50.5234375 C3.88389399 49.80576856 2.60264642 48.23086206 0 45 C-0.56762695 41.6784668 -0.56762695 41.6784668 -0.48828125 37.94921875 C-0.48120651 37.29041214 -0.47413177 36.63160553 -0.46684265 35.95283508 C-0.43900979 33.86319966 -0.37630819 31.77631524 -0.3125 29.6875 C-0.28740205 28.26501286 -0.26459148 26.84248341 -0.24414062 25.41992188 C-0.18922446 21.94573139 -0.10303685 18.4731345 0 15 C-2.64 15 -5.28 15 -8 15 C-8 13.68 -8 12.36 -8 11 C-5.36 11 -2.72 11 0 11 C0 7.37 0 3.74 0 0 Z " fill="#5C5857" transform="translate(2300,449)"/>
<path d="M0 0 C1.98 0 3.96 0 6 0 C6 3.63 6 7.26 6 11 C9.96 11 13.92 11 18 11 C18 12.32 18 13.64 18 15 C14.04 15 10.08 15 6 15 C6.1134127 19.45890972 6.24017333 23.91673148 6.375 28.375 C6.4059375 29.64601563 6.436875 30.91703125 6.46875 32.2265625 C6.50742188 33.43828125 6.54609375 34.65 6.5859375 35.8984375 C6.6173584 37.01911621 6.6487793 38.13979492 6.68115234 39.29443359 C6.73411203 42.14710412 6.73411203 42.14710412 9 44 C11.44012949 44.24287489 11.44012949 44.24287489 14.125 44.125 C15.03507812 44.10695313 15.94515625 44.08890625 16.8828125 44.0703125 C17.58148437 44.04710937 18.28015625 44.02390625 19 44 C19.33 45.65 19.66 47.3 20 49 C16.86920913 50.04359696 14.41483851 50.26834688 11.125 50.375 C9.58199219 50.44847656 9.58199219 50.44847656 8.0078125 50.5234375 C3.88389399 49.80576856 2.60264642 48.23086206 0 45 C-0.56762695 41.6784668 -0.56762695 41.6784668 -0.48828125 37.94921875 C-0.48120651 37.29041214 -0.47413177 36.63160553 -0.46684265 35.95283508 C-0.43900979 33.86319966 -0.37630819 31.77631524 -0.3125 29.6875 C-0.28740205 28.26501286 -0.26459148 26.84248341 -0.24414062 25.41992188 C-0.18922446 21.94573139 -0.10303685 18.4731345 0 15 C-2.64 15 -5.28 15 -8 15 C-8 13.68 -8 12.36 -8 11 C-5.36 11 -2.72 11 0 11 C0 7.37 0 3.74 0 0 Z " fill="#5C5857" transform="translate(1517,449)"/>
<path d="M0 0 C1.98 0 3.96 0 6 0 C6 3.63 6 7.26 6 11 C9.96 11 13.92 11 18 11 C18 12.32 18 13.64 18 15 C14.04 15 10.08 15 6 15 C6.1134127 19.45890972 6.24017333 23.91673148 6.375 28.375 C6.4059375 29.64601563 6.436875 30.91703125 6.46875 32.2265625 C6.50742188 33.43828125 6.54609375 34.65 6.5859375 35.8984375 C6.6173584 37.01911621 6.6487793 38.13979492 6.68115234 39.29443359 C6.73411203 42.14710412 6.73411203 42.14710412 9 44 C11.44012949 44.24287489 11.44012949 44.24287489 14.125 44.125 C15.03507812 44.10695313 15.94515625 44.08890625 16.8828125 44.0703125 C17.58148437 44.04710937 18.28015625 44.02390625 19 44 C19.33 45.65 19.66 47.3 20 49 C16.86920913 50.04359696 14.41483851 50.26834688 11.125 50.375 C9.58199219 50.44847656 9.58199219 50.44847656 8.0078125 50.5234375 C3.88389399 49.80576856 2.60264642 48.23086206 0 45 C-0.56762695 41.6784668 -0.56762695 41.6784668 -0.48828125 37.94921875 C-0.48120651 37.29041214 -0.47413177 36.63160553 -0.46684265 35.95283508 C-0.43900979 33.86319966 -0.37630819 31.77631524 -0.3125 29.6875 C-0.28740205 28.26501286 -0.26459148 26.84248341 -0.24414062 25.41992188 C-0.18922446 21.94573139 -0.10303685 18.4731345 0 15 C-2.64 15 -5.28 15 -8 15 C-8 13.68 -8 12.36 -8 11 C-5.36 11 -2.72 11 0 11 C0 7.37 0 3.74 0 0 Z " fill="#5C5857" transform="translate(1186,449)"/>
<path d="M0 0 C0.85464844 -0.01417969 1.70929688 -0.02835937 2.58984375 -0.04296875 C5.20159303 0.20046444 6.81750652 0.8696732 9.0625 2.1875 C8.7325 3.8375 8.4025 5.4875 8.0625 7.1875 C7.25425781 7.12949219 6.44601562 7.07148438 5.61328125 7.01171875 C-1.19734971 6.58097188 -1.19734971 6.58097188 -7.125 9.5 C-9.70551579 13.32628204 -10.08672475 16.21656815 -10.25390625 20.73046875 C-10.29580078 21.80361328 -10.33769531 22.87675781 -10.38085938 23.98242188 C-10.43983398 25.66174805 -10.43983398 25.66174805 -10.5 27.375 C-10.54318359 28.50615234 -10.58636719 29.63730469 -10.63085938 30.80273438 C-10.73699099 33.59753354 -10.83904385 36.39242162 -10.9375 39.1875 C-12.9175 39.1875 -14.8975 39.1875 -16.9375 39.1875 C-16.9375 26.6475 -16.9375 14.1075 -16.9375 1.1875 C-13.9375 1.1875 -10.9375 1.1875 -7.9375 1.1875 C-5.02663331 0.2172111 -3.03526315 0.02282153 0 0 Z " fill="#5C5857" transform="translate(1481.9375,458.8125)"/>
<path d="M0 0 C1.98 0 3.96 0 6 0 C6 17.82 6 35.64 6 54 C4.02 54 2.04 54 0 54 C0 36.18 0 18.36 0 0 Z " fill="#5C5857" transform="translate(2237,444)"/>
<path d="M0 0 C1.98 0 3.96 0 6 0 C6 12.54 6 25.08 6 38 C4.02 38 2.04 38 0 38 C0 25.46 0 12.92 0 0 Z " fill="#5C5857" transform="translate(2326,460)"/>
<path d="M0 0 C1.98 0 3.96 0 6 0 C6 12.54 6 25.08 6 38 C4.02 38 2.04 38 0 38 C0 25.46 0 12.92 0 0 Z " fill="#5C5857" transform="translate(1883,460)"/>
<path d="M0 0 C1.98 0 3.96 0 6 0 C6 12.54 6 25.08 6 38 C4.02 38 2.04 38 0 38 C0 25.46 0 12.92 0 0 Z " fill="#5C5857" transform="translate(1544,460)"/>
<path d="M0 0 C1.98 0 3.96 0 6 0 C6 12.54 6 25.08 6 38 C4.02 38 2.04 38 0 38 C0 25.46 0 12.92 0 0 Z " fill="#5C5857" transform="translate(1496,460)"/>
<path d="M0 0 C3 0.125 3 0.125 4 1.125 C4.04080783 3.12458364 4.04254356 5.12545254 4 7.125 C1.36 7.125 -1.28 7.125 -4 7.125 C-4.04254356 5.12545254 -4.04080783 3.12458364 -4 1.125 C-3 0.125 -3 0.125 0 0 Z " fill="#5C5857" transform="translate(2329,444.875)"/>
<path d="M0 0 C3 0.125 3 0.125 4 1.125 C4.04080783 3.12458364 4.04254356 5.12545254 4 7.125 C1.36 7.125 -1.28 7.125 -4 7.125 C-4.04254356 5.12545254 -4.04080783 3.12458364 -4 1.125 C-3 0.125 -3 0.125 0 0 Z " fill="#5C5857" transform="translate(1886,444.875)"/>
<path d="M0 0 C3 0.125 3 0.125 4 1.125 C4.04080783 3.12458364 4.04254356 5.12545254 4 7.125 C1.36 7.125 -1.28 7.125 -4 7.125 C-4.04254356 5.12545254 -4.04080783 3.12458364 -4 1.125 C-3 0.125 -3 0.125 0 0 Z " fill="#5C5857" transform="translate(1547,444.875)"/>
<path d="M0 0 C3 0.125 3 0.125 4 1.125 C4.04080783 3.12458364 4.04254356 5.12545254 4 7.125 C1.36 7.125 -1.28 7.125 -4 7.125 C-4.04254356 5.12545254 -4.04080783 3.12458364 -4 1.125 C-3 0.125 -3 0.125 0 0 Z " fill="#5C5857" transform="translate(1499,444.875)"/>
</svg>
